/* XPM */
static char *result[] = {
/* columns rows colors chars-per-pixel */
"64 64 220 2 ",
"   c #6E3321",
".  c #6F3625",
"X  c #703929",
"o  c #713A2B",
"O  c #713B2B",
"+  c #713B2C",
"@  c #713C2D",
"#  c #723C2D",
"$  c #763E2F",
"%  c #723E30",
"&  c #733F31",
"*  c #734032",
"=  c #744032",
"-  c #754133",
";  c #744134",
":  c #794030",
">  c #7A4131",
",  c #7B4131",
"<  c #7C4231",
"1  c #7C4333",
"2  c #7D4333",
"3  c #7E4433",
"4  c #784234",
"5  c #7B4435",
"6  c #7B4436",
"7  c #7B4536",
"8  c #7B4537",
"9  c #7C4435",
"0  c #7E4535",
"q  c #7C4536",
"w  c #7D4536",
"e  c #7D4537",
"r  c #7D4637",
"t  c #7E4637",
"y  c #76483D",
"u  c #77493D",
"i  c #784A3E",
"p  c #7A4B3F",
"a  c #7A4C40",
"s  c #7B4E43",
"d  c #7E4D41",
"f  c #7F4D41",
"g  c #7C4F43",
"h  c #7F4E42",
"j  c #7C4F44",
"k  c #7C5045",
"l  c #7F5044",
"z  c #7D5449",
"x  c #804737",
"c  c #824838",
"v  c #8A4B39",
"b  c #8E4D3B",
"n  c #8A4D3D",
"m  c #8B4E3D",
"M  c #8C4D3C",
"N  c #8F4E3C",
"B  c #8F4F3D",
"V  c #8C4E3E",
"C  c #8C4F3E",
"Z  c #8D4F3E",
"A  c #904F3D",
"S  c #8E503F",
"D  c #8F503F",
"F  c #90503F",
"G  c #90513F",
"H  c #96513E",
"J  c #97533F",
"K  c #98533F",
"L  c #814E42",
"P  c #825246",
"I  c #825347",
"U  c #835347",
"Y  c #855347",
"T  c #8F5040",
"R  c #8F5140",
"E  c #8C5446",
"W  c #8E5547",
"Q  c #8F5647",
"!  c #8F594B",
"~  c #915140",
"^  c #945240",
"/  c #955341",
"(  c #965441",
")  c #965442",
"_  c #975442",
"`  c #995441",
"'  c #9A5541",
"]  c #9B5541",
"[  c #985542",
"{  c #995543",
"}  c #985643",
"|  c #995643",
" . c #9B5642",
".. c #9A5643",
"X. c #9A5743",
"o. c #9C5642",
"O. c #9A5644",
"+. c #9A5744",
"@. c #9B5744",
"#. c #9B5745",
"$. c #9C5744",
"%. c #9C5844",
"&. c #9C5845",
"*. c #9E5845",
"=. c #9F5945",
"-. c #905648",
";. c #955849",
":. c #925B4D",
">. c #935B4D",
",. c #985A4A",
"<. c #985B4A",
"1. c #995B4B",
"2. c #985E4E",
"3. c #835B50",
"4. c #845E54",
"5. c #9B5F50",
"6. c #AA5E49",
"7. c #AB5F4A",
"8. c #AC5F4A",
"9. c #856158",
"0. c #9C6050",
"q. c #AD604B",
"w. c #AE614B",
"e. c #AE614C",
"r. c #B0624C",
"t. c #B1624C",
"y. c #B1634D",
"u. c #B2634D",
"i. c #BB634D",
"p. c #BD634E",
"a. c #BE634E",
"s. c #BD654E",
"d. c #BF654E",
"f. c #8C6A62",
"g. c #8D6A63",
"h. c #8D6B63",
"j. c #8E6B63",
"k. c #8A6D67",
"l. c #8B6D67",
"z. c #8E6C64",
"x. c #8D6E67",
"c. c #876D68",
"v. c #886E69",
"b. c #896E69",
"n. c #8A6E68",
"m. c #8B6E68",
"M. c #8A6F69",
"N. c #8B6F69",
"B. c #8C6E68",
"V. c #916C64",
"C. c #926C64",
"Z. c #916E66",
"A. c #966C64",
"S. c #966D64",
"D. c #966D65",
"F. c #946F67",
"G. c #8E726B",
"H. c #8F726B",
"J. c #8C726C",
"K. c #8D726C",
"L. c #987067",
"P. c #90716A",
"I. c #9C7D74",
"U. c #9F7D74",
"Y. c #9D7E75",
"T. c #9F7F76",
"R. c #A17E74",
"E. c #A17F76",
"W. c #C1664F",
"Q. c #C36750",
"!. c #C46751",
"~. c #C56851",
"^. c #C66852",
"/. c #C76852",
"(. c #C86852",
"). c #C86952",
"_. c #C96953",
"`. c #9F8178",
"'. c #9F817A",
"]. c #9F827A",
"[. c #9F837B",
"{. c #A18077",
"}. c #A48076",
"|. c #A48177",
" X c #A58177",
".X c #A78177",
"XX c #A88177",
"oX c #A98177",
"OX c #A58379",
"+X c #A1847C",
"@X c #A0857D",
"#X c #A1857D",
"$X c #A2847C",
"%X c #A2857D",
"&X c #A3857D",
"*X c #A0867E",
"=X c #A1867E",
"-X c #A2867E",
";X c #A3867E",
":X c #A3867F",
">X c #A3877F",
",X c #A8847A",
"<X c #A3887F",
"1X c #A18981",
"2X c #A28981",
"3X c #A48981",
"4X c #A18B84",
"5X c #A28B84",
"6X c #A38C85",
"7X c #A98C83",
"8X c #A98E86",
"9X c #AA8E86",
"0X c #AA8E87",
"qX c #A7948D",
"wX c #A8928B",
"eX c #A9948D",
"rX c #A9958D",
"tX c #A9958E",
"yX c #A9968F",
"uX c #AA9790",
/* pixels */
"r.r.r.r.r.r.t.q.@.@. .<.m.B.v.S././././././././././.(.Q.r.r.r.r.r.r.r.r.r.r.t.q.@.#.] 0.%X%X*XXX/././.Q.r.r.r.r.r.r.r.r.r.r.r.r.",
"r.r.r.r.r.r.t.q.@.@. .<.m.B.v.D.^.^.^.^./.^./././.^./.Q.r.r.r.r.r.r.r.r.r.r.t.q.@.#.] 5.%X%X*XXX^.^./.Q.r.r.r.r.r.r.r.r.r.r.r.r.",
"t.t.t.t.t.r.y.w.@.@.o.,.k.l.c.A._._._._.).).).).).(._.!.t.t.t.t.t.t.t.t.t.r.y.w.@.#.] 0.%X%X*XoX_._._.~.t.t.t.t.t.t.t.t.t.t.t.t.",
"q.q.q.q.q.q.w.7.{ } ` ,.H.H.K.L.p.p.p.p.d.d.d.d.W.W.W.s.q.q.q.q.q.q.q.q.q.q.w.7.{ | K 5.%X%X=X Xp.p.a.i.q.q.q.q.q.q.q.q.q.q.q.q.",
"@.@.@.@.@.@.@.{ D R b :.%X%X;XY.w w q x D D S ~ @.@.@.@.@.@.@.@.@.@.@.@.@.@.@.{ D R b :.%X%X:XY.w w q c @.@.@.@.@.@.@.@.@.@.@.@.",
"@.@.@.@.@.@.@.[ D R b :.%X%X>XY.w w q x D D S ~ @.@.@.@.@.@.@.@.@.@.@.@.@.@.@.[ D T b :.%X%X:XY.w w 9 c @.@.@.@.@.@.@.@.@.@.@.@.",
"$.$.$.$.%.%.%...G G N >.+X+X;XY.w 0 w x G G D ~ @.@.@.@.@.@.@.@.$.$.$.$.%.%.%...G G N >.%X%X:XY.w 0 q c @.@.@.@.$.$.$.$.$.$.$.$.",
") ( ) ( / / / ^ m m v ! <X>X3X`.6 5 5 t m m n Z { { { { { { { [ ( ( ) ( / / / ^ m m v ! %X%X>XY.6 6 5 x { { { [ ( ( ) ( ) ) ) ) ",
"w w w 5 & & & & & = X z tXeXuX5X& & & & & & % 4 D D D D D D F V w w w 5 & & & & & * O j %X%X>XI.& & & 4 D D D V w w w w w w w w ",
"e e r 7 * * * * * ; o z tXtXuX5X* * = * * * & 4 D T T T T D R C e e r 7 * * * * * ; @ k %X%X>XY.* = * 4 D D R C e e r e e e e e ",
"1 1 2 > # # # # O @   k tXeXuX4X+ o + + # # @ : B B B B B B A M 1 1 2 > O O O O O @ . a $X+X;XI.+ O o $ B B A M 1 1 1 1 1 1 1 1 ",
"f f f d u u u i j k p 4.tXtXuX6Xj j j s u u y p W W W W W W Q E f f f d j j j j j k a 3.<X>X3X`.j j j l W W Q E f f f f f f f f ",
"m.m.m.m.m.m.k.H.%X%X+X<XtXtXtXwX%X%X;X].m.m.m.m.m.m.m.m.m.m.m.m.m.m.k.H.%X%X%X%X%X%X$X<XtXtXtXwX%X%X;X].m.m.m.m.m.m.m.m.m.m.m.m.",
"B.B.B.B.B.B.l.H.%X%X$X<XrXeXtXwX%X$X&X'.m.m.m.m.m.m.m.m.m.m.m.m.B.B.l.H.%X%X%X%X%X%X$X<XrXrXtXwX%X$X&X'.m.m.m.m.m.m.m.m.m.m.m.m.",
"v.v.v.v.v.v.c.J.=X=X#X2XyXyXuXqX-X-X>X[.b.b.b.b.M.M.M.n.k.k.k.k.v.v.c.J.=X=X=X=X=X=X#X2XyXyXuXqX-X-X>X[.b.b.b.b.M.M.M.n.m.m.m.m.",
"D.D.D.S.D.D.A.L.|.|.}.OX9X8X0X7XE.E.{.U.V.V.C.V.h.h.g.z.H.H.G.P.S.D.A.L.|.|.|.|.|.|.}.OX9X8X0X7XE.E.{.U.V.V.C.V.h.h.h.h.m.m.m.m.",
"/././././././.Q.r.r.r.r.r.r.t.q.@.@.X.*.r.r.t.q.@.#.] 0.%X%X*XXX/././.Q.r.r.r.r.r.r.r.r.r.r.t.q.@.@.X.*.r.r.t.q.@.@. .,.m.m.m.m.",
"^.^.^.^./.^./.Q.r.r.r.r.r.r.t.q.@.@.O.*.r.r.r.q.@.#.' 5.%X%X*XXX^.^./.Q.r.r.r.r.r.r.r.r.r.r.r.q.@.@.O.*.r.r.r.q.@.@. .,.m.m.m.m.",
"_._._._.).(._.!.t.t.t.t.t.r.y.e.@.@.O.*.y.t.u.e.$.&.] 0.%X%X*XoX_.)._.~.y.y.y.y.y.y.y.y.y.y.u.e.@.@.+.*.y.t.u.e.$.&.$.1.k.k.k.k.",
"p.p.p.a.W.W.W.s.q.q.q.q.q.q.w.7.@.@.+.%.8.7.q.6.) ) H 2.%X%X=X Xp.p.a.i.8.8.8.8.8.8.8.8.8.7.q.6.{ { [ $.8.7.q.6.) ) J ;.H.H.H.H.",
"w w 9 c @.@.@.@.@.@.@.@.@.@.@.@.@.@.@.{ D D F V w r , U %X%X:XY.w w q x D D D D D D D D D D D D D D D D D D D V w r , U %X%X%X%X",
"w w 9 c @.@.@.@.@.@.@.@.@.@.@.@.@.@.@.[ D D D V w r , U %X%X>XY.w w q x D D D D D D D D D D D D D D D D D D D V w r , U %X%X%X%X",
"w w 9 c @.@.@.@.@.@.@.@.$.$.$.$.$.$.%.| F D G Z w t < U +X+X;XY.w 0 w x G G G G F F F D D D D D D D D D F D G Z w t < U %X%X%X%X",
"w w 9 c { { [ | @.@.@...( ( ) ( ( ( _ / V V Z n 5 8 : I <X>X3X`.6 5 5 t m m m m V V V Z D D D D D D D S V V Z n 5 8 > P %X%X%X%X",
"w w q x D D S ~ @.@.$.( w w w w w w w w w w w 6 & * X z tXeXuX5X& & & & & & & = w w q x D D D D D D D V w w w 6 & * O j %X%X%X%X",
"r t r x T T S ~ @.@.&.) e e r e e r e r r r t 8 * ; o z tXtXuX5X* * = * * = * - e r q x T T T T T D R C e e r 7 * ; @ k %X%X%X%X",
", < > 3 B B N F  . .o.J 1 1 1 1 1 1 1 1 , , < > O @   k tXeXuX4X+ o + O O + o # 1 2 1 0 B B B B B B A M 1 1 2 > O @ . a $X$X+X$X",
"U U U Y W W W -.,.,.1.;.f f f f f f f h U U U P j k p 4.tXtXuX6Xj j j j j j j g f f d L W W W W W W Q E f f f d j k a 3.<X<X<X<X",
"%X%X;X].m.m.m.m.m.m.m.m.m.m.m.m.m.m.k.H.%X%X%X%X%X%X$X<XtXtXtXwX%X%X%X%X%X%X;X].m.m.m.m.m.m.m.m.m.m.m.m.m.m.k.H.%X%X+X<XtXtXtXtX",
"%X%X&X'.m.m.m.m.m.m.m.m.m.m.m.m.B.B.l.H.%X%X%X%X%X%X$X<XrXeXtXwX%X%X%X%X%X%X&X'.m.m.m.m.m.m.m.m.B.B.B.B.B.B.l.H.%X%X$X<XrXtXtXtX",
"=X=X>X[.b.b.b.b.M.M.M.n.k.k.k.k.v.v.c.J.*X*X*X*X*X*X@X1XyXyXuXqX-X-X-X-X=X=X>X[.M.M.M.n.k.k.k.k.v.v.v.v.v.v.c.J.=X=X#X2XyXyXyXyX",
"|.}. XR.V.V.C.V.h.h.g.z.H.H.G.P.S.D.A.L.XXXXXXXXXXXXXX,X9X8X0X7XE.E.E.{.|.}. XR.h.h.g.z.H.H.G.P.S.D.D.S.D.D.A.L.|.|.}.OX9X9X9X9X",
"r.r.r.r.r.r.t.q.@.#.] 0.%X%X*XXX/././././././././././.Q.r.r.t.q.@.@...*.r.r.t.q.@.#.] 0.%X%X*XXX/././././././.Q.r.r.r.r.r.r.r.r.",
"r.r.r.r.r.r.r.q.@.#.] 5.%X%X*XXX^.^./././././././.^./.Q.r.r.t.q.@.@.O.*.r.r.r.q.@.#.' 5.%X%X*XXX^.^.^.^./.^./.Q.r.r.r.r.r.r.r.r.",
"t.t.t.t.t.r.y.w.@.#.] 0.%X%X*XoX).).).).).).).).).)._.!.t.r.y.e.@.@.O.*.t.r.y.e.$.&.] 0.%X%X*XoX).).).).).(._.!.t.t.t.t.t.t.t.t.",
"q.q.q.q.q.q.w.7.{ | K 5.%X%X=X.Xd.d.d.d.W.W.W.W.W.W.W.s.q.q.w.7.@.@.O.*.q.q.w.6.( ) H 2.%X%X=X.Xd.d.d.d.W.W.W.s.q.q.q.q.q.q.q.q.",
"@.@.@.@.@.@.@.{ D R b :.%X%X-XT.D D D ~ @.@.@.@.@.@.@.@.@.@.@.@.@.@.@.@.@.@.$.( w r , U %X%X-XT.D D D ~ @.@.@.@.@.@.@.@.@.@.@.@.",
"@.@.@.@.@.@.@.[ D T b :.%X%X;XT.D D S ~ @.@.@.@.@.@.@.@.@.@.@.@.@.@.@.@.@.+.$.( w r , U %X%X:XT.D D S ~ @.@.@.@.@.@.@.@.@.@.@.@.",
"$.$.$.$.$.$.%...G G N >.%X%X-XT.F F D ~ $.$.$.$.@.@.@.@.@.@.@.@.$.$.$.$.$.$.&._ w t < U +X+X-XU.F F D ~ @.@.@.@.@.@.@.@.@.@.@.@.",
") ) ) ( ( ( _ / m m v ! %X%X;XT.V V V Z ) ( ( _ { { { { { { { [ ( ( ) ( ( ( _ ^ 5 8 : I <X>X2X`.V V V S { { { { { { { { { { { { ",
"w w w w w w w 5 & * O j %X%X:XY.w w w w w w q x D D D D D D F V w w w w w w w 5 & * X z tXeXuX6Xw w q x D D D D D D D D D D D D ",
"e r e r r r t 8 * ; @ k %X%X>XY.r r r r r r q x T T T T T D R C e e r e e e r 7 * ; o z tXtXuX6Xr r r x D T T T T T T T T T T T ",
"1 1 1 1 , , < > O @ . a $X+X;XI., , , < 1 2 1 0 B B B B B B A M 1 1 1 1 1 1 2 > O @   k tXeXuX6X, < , 3 B B B B B B B B B B B B ",
"f f f h U U U P j k a 3.<X<X3X].U U U P f f d L W W W W W W Q E f f f f f f f d j k p 4.tXtXuX6XU U U Y W W W W W W W W W W W W ",
"m.m.k.H.%X%X%X%X%X%X$X<XtXtXtXwX%X%X;X].m.m.m.m.m.m.m.m.m.m.m.m.m.m.m.m.m.m.k.H.%X%X+X<XtXtXtXwX%X%X;X].m.m.m.m.m.m.m.m.m.m.m.m.",
"m.m.k.H.%X%X%X%X%X%X$X<XrXrXtXwX%X$X&X'.m.m.m.m.m.m.m.m.m.m.m.m.B.B.B.B.m.m.k.H.%X%X$X<XrXeXtXwX%X$X&X'.m.m.m.m.m.m.m.m.m.m.m.m.",
"M.N.b.G.=X=X=X=X=X=X#X2XyXyXuXqX-X-X>X[.b.b.b.b.M.M.M.n.m.m.m.n.v.v.v.v.b.M.c.K.=X=X#X2XyXyXuXqX-X-X>X[.b.b.b.b.M.M.M.n.k.k.k.k.",
"h.j.f.Z.|.|.|.|.|.|.}.OX9X8X0X7XE.E.{.U.V.V.C.V.h.h.h.h.m.m.n.x.S.D.S.S.V.C.V.F.|.|.}.OX9X8X0X7XE.E.{.U.V.V.C.V.h.h.g.z.H.H.H.H.",
"@.@...*.r.r.r.r.r.r.r.r.r.r.t.q.@.@.X.*.r.r.t.q.@.@. .,.m.B.v.S./././.Q.r.r.r.r.r.r.r.r.r.r.t.q.@.@.X.*.r.r.t.q.@.#.] 0.%X%X%X%X",
"@.@...&.r.r.r.r.r.r.r.r.r.r.t.q.@.@.O.*.r.r.r.q.@.@. .,.m.B.v.D.^.^./.Q.r.r.r.r.r.r.r.r.r.r.t.q.@.@.O.*.r.r.r.q.@.#.' 5.%X%X%X%X",
"$.&.@.=.t.t.t.t.t.t.t.t.t.r.y.e.@.@.O.*.t.r.y.w.@.@.o.,.k.l.c.A.).(._.!.t.t.t.t.t.t.t.t.t.r.y.e.@.@.O.*.t.r.y.e.$.&.] 0.%X%X%X%X",
"( ) / ..q.q.q.q.q.q.q.q.q.q.w.7.@.@.O.*.q.q.w.7.{ } ` ,.H.H.K.L.d.d.d.p.q.q.q.q.q.q.q.q.q.q.w.7.@.@.O.*.q.q.w.6.( ) H 2.%X%X%X%X",
"w w 9 c @.@.@.@.@.@.@.@.@.@.@.@.@.@.@.@.@.@.@.{ D R b :.%X%X-XT.D D D ~ @.@.@.@.@.@.@.@.@.@.@.@.@.@.@.@.@.@.$.( w r , U %X%X%X%X",
"w w 9 c @.@.@.@.@.@.@.@.@.@.@.@.@.@.@.@.@.@.@.[ D R b :.%X%X:XT.D D S ~ @.@.@.@.@.@.@.@.@.@.@.@.@.@.@.@.@.+.$.( w r , U %X%X%X%X",
"w 0 q c $.$.$.$.$.$.$.$.$.$.$.$.$.$.$.$.$.$.%...G G N >.+X+X-XU.G G D ~ $.$.$.$.$.$.$.$.$.$.$.$.$.$.$.$.$.$.&._ w t < U $X$X+X$X",
"5 7 5 x ) ( ( ( ) ) ) ) ) ) ) ) ) ) ) ( ( ( _ / m C v ! <X>X3X`.m m m Z ( ( ( ( ) ) ) ) ) ) ) ) ) ) ) ( ( ( _ ^ 5 8 : I <X<X<X<X",
"& & & = w w w w w w w w w w w w w w w w w w w 5 & = X z tXeXuX5X& & & = w w w w w w w w w w w w w w w w w w w 5 & * X z tXtXtXtX",
"* = * - e e e e e e e e e e e e e e e e e e r 7 * ; o z tXtXuX5X* * * - r r r r r e e e e e e e e r e r r r t 8 * ; O z tXtXtXtX",
"O + o # 1 1 1 1 1 1 1 1 1 1 1 1 1 1 1 1 1 1 2 > O #   k tXeXuX4X+ O + # , , , < 1 1 1 1 1 1 1 1 1 1 1 1 , , < : X O   k tXtXtXtX",
"j j j g f f f f f f f f f f f f f f f f f f f d j k p 4.tXtXuX6Xj j j k U U U P f f f f f f f f f f f h U U U I z z k 9.tXtXtXtX",
"%X%X;X].m.m.m.m.m.m.m.m.m.m.m.m.m.m.m.m.m.m.k.H.%X%X+X<XtXtXtXwX%X%X%X%X%X%X;X].m.m.m.m.m.m.m.m.m.m.k.H.%X%X+X<XtXtXtXtXtXtXtXtX",
"%X%X;X].m.m.m.m.m.m.m.m.m.m.m.m.m.m.m.m.m.m.k.H.%X%X$X<XtXtXtXwX%X%X%X%X%X%X;X].m.m.m.m.m.m.m.m.m.m.k.H.%X%X$X<XtXtXtXtXtXtXtXtX",
"%X%X;X].m.m.m.m.m.m.m.m.m.m.m.m.m.m.m.m.m.m.k.H.%X%X+X<XtXtXtXwX%X%X%X%X%X%X;X].m.m.m.m.m.m.m.m.m.m.k.H.%X%X+X<XtXtXtXtXtXtXtXtX",
"%X%X;X].m.m.m.m.m.m.m.m.m.m.m.m.m.m.m.m.m.m.k.H.%X%X$X<XtXtXtXwX%X%X%X%X%X%X;X].m.m.m.m.m.m.m.m.m.m.k.H.%X%X$X<XtXtXtXtXtXtXtXtX"
};
