/* XPM */
static char *result[] = {
/* columns rows colors chars-per-pixel */
"64 64 255 2 ",
"   c #6C9E42",
".  c #6E9747",
"X  c #6F9947",
"o  c #78AB4B",
"O  c #79AD4B",
"+  c #79AD4A",
"@  c #6E9845",
"#  c #79A84A",
"$  c #74AF4B",
"%  c #74B04C",
"&  c #6FA246",
"*  c #6FA146",
"=  c #709846",
"-  c #75A54B",
";  c #75A64A",
":  c #74A54C",
">  c #699D48",
",  c #75A64D",
"<  c #76A849",
"1  c #75A748",
"2  c #6A9B44",
"3  c #6C9546",
"4  c #6C9747",
"5  c #76A74C",
"6  c #6C9946",
"7  c #6B9846",
"8  c #7AAC49",
"9  c #6C9D48",
"0  c #6F9A45",
"q  c #77A648",
"w  c #699943",
"e  c #78AA4B",
"r  c #6E9B46",
"t  c #74A24C",
"y  c #76A14C",
"u  c #76A547",
"i  c #75A84C",
"p  c #71A749",
"a  c #72A74A",
"s  c #78AB4E",
"d  c #73AA49",
"f  c #6FA649",
"g  c #6FA549",
"h  c #6D9A45",
"j  c #78A34B",
"k  c #79A54B",
"l  c #79B04D",
"z  c #6A5E39",
"x  c #695538",
"c  c #6A5538",
"v  c #689742",
"b  c #79A64C",
"n  c #7AA84F",
"m  c #7BAA4F",
"M  c #71A14A",
"N  c #70A04A",
"B  c #72A849",
"V  c #684836",
"C  c #694A36",
"Z  c #685337",
"A  c #689441",
"S  c #7AA74C",
"D  c #6A5738",
"F  c #694B36",
"G  c #694D37",
"H  c #72A44D",
"J  c #72A548",
"K  c #689D42",
"L  c #679C42",
"P  c #73A14B",
"I  c #6A9F45",
"U  c #6F9D46",
"Y  c #719F46",
"T  c #71A247",
"R  c #73A348",
"E  c #739F48",
"W  c #729947",
"Q  c #719546",
"!  c #6E9B49",
"~  c #75AD4B",
"^  c #6E9C44",
"/  c #73A04A",
"(  c #71A046",
")  c #729D49",
"_  c #684C36",
"`  c #664935",
"'  c #719C45",
"]  c #709145",
"[  c #6D5039",
"{  c #6D5139",
"}  c #6E4E39",
"|  c #6D573B",
" . c #74AA49",
".. c #71AB48",
"X. c #685637",
"o. c #76A447",
"O. c #76A046",
"+. c #6B4C3B",
"@. c #6D4E3C",
"#. c #6C4D3B",
"$. c #997052",
"%. c #9B7254",
"&. c #9C7154",
"*. c #75A849",
"=. c #72AB4A",
"-. c #739C47",
";. c #6A4D37",
":. c #694736",
">. c #74A84A",
",. c #9C7253",
"<. c #9E7556",
"1. c #A07555",
"2. c #9D7155",
"3. c #6B4D3B",
"4. c #664B35",
"5. c #9B7054",
"6. c #9D7455",
"7. c #9E7454",
"8. c #6C4E38",
"9. c #674C36",
"0. c #735C3D",
"q. c #73533C",
"w. c #72593E",
"e. c #714F3E",
"r. c #71513E",
"t. c #6E593A",
"y. c #A07455",
"u. c #9E7455",
"i. c #9A7254",
"p. c #77573E",
"a. c #73553C",
"s. c #C59369",
"d. c #CB976C",
"f. c #9B7253",
"g. c #9C7152",
"h. c #9D7253",
"j. c #9F7356",
"k. c #9F7455",
"l. c #9D7355",
"z. c #A17756",
"x. c #C7946A",
"c. c #CA966C",
"v. c #C6936A",
"b. c #765540",
"n. c #6A4C3B",
"m. c #70503E",
"M. c #9A7153",
"N. c #9F7555",
"B. c #CA976C",
"V. c #6F9A49",
"C. c #D19C70",
"Z. c #D19B6F",
"A. c #A07456",
"S. c #9F7454",
"D. c #9C7254",
"F. c #A17557",
"G. c #9E7456",
"H. c #9F7456",
"J. c #9E7355",
"K. c #A27757",
"L. c #CD996F",
"P. c #D09B6F",
"I. c #775641",
"U. c #9C7355",
"Y. c #A37757",
"T. c #CD996D",
"R. c #644834",
"E. c #71533B",
"W. c #9D7354",
"Q. c #9D7255",
"!. c #9B7152",
"~. c #9E7354",
"^. c #A27657",
"/. c #CC976D",
"(. c #CF9A70",
"). c #CF9B6F",
"_. c #CA966B",
"`. c #694B3A",
"'. c #A17656",
"]. c #CC976C",
"[. c #CF9A6E",
"{. c #CD986D",
"}. c #C8956C",
"|. c #7B5A42",
" X c #A27756",
".X c #997153",
"XX c #A37758",
"oX c #A37658",
"OX c #A57958",
"+X c #CC986D",
"@X c #7A5842",
"#X c #6F4F3D",
"$X c #755440",
"%X c #77A04E",
"&X c #987653",
"*X c #A67959",
"=X c #C8946A",
"-X c #8F6951",
";X c #88644E",
":X c #8A664F",
">X c #8C6750",
",X c #C9966C",
"<X c #CE9A6E",
"1X c #CF9A6F",
"2X c #CC986C",
"3X c #C9966B",
"4X c #9C7854",
"5X c #CB976D",
"6X c #8E6951",
"7X c #87634E",
"8X c #8A654F",
"9X c #CC986E",
"0X c #A37756",
"qX c #D09B6E",
"wX c #745440",
"eX c #684A39",
"rX c #D09A6E",
"tX c #CB976E",
"yX c #7A9E4E",
"uX c #7F5C45",
"iX c #906A51",
"pX c #8B664F",
"aX c #89654F",
"sX c #86634D",
"dX c #A17758",
"fX c #9F7352",
"gX c #CE996E",
"hX c #9D765C",
"jX c #9D775C",
"kX c #9A755B",
"lX c #72523E",
"zX c #6E4F3D",
"xX c #73533F",
"cX c #6F5648",
"vX c #889698",
"bX c #87989C",
"nX c #85989C",
"mX c #6C4C38",
"MX c #83969B",
"NX c #859BA0",
"BX c #9E7255",
"VX c #9E7555",
"CX c #6C5447",
"ZX c #839AA0",
"AX c #785C4B",
"SX c #8B9B9D",
"DX c #8D9899",
"FX c #A1795E",
"GX c #CC9A73",
"HX c #87634D",
"JX c #C79770",
"KX c #8A9B9D",
"LX c #A07A5D",
"PX c #85624D",
"IX c #87989B",
/* pixels */
"        . . . X o O + o X @ @ X # # # # $ % % $ & & & * = = = = - ; ; : > > > > : , , , < < < 1 2 2 2 2 3 3 3 4 5 5 5 5 6 7 7 7 ",
"        . . . X o 8 O o X @ @ X # # # # $ % % $ & & & * = = = = - ; ; ; 9 > > > - , , , < < < 1 2 2 2 2 4 3 3 4 5 5 5 5 6 7 7 7 ",
"        . . . X o O O o X @ @ 0 q # # # % % % $ & & & * = = = = - ; ; : > > > > , , , , < < < 1 2 w 2 w 3 3 3 3 5 5 5 5 6 7 7 7 ",
"        . . . X e O + o r X X 0 # # # # $ % % $ & & & * = = = = - ; ; : 9 9 9 9 t t t y ; 1 1 1 2 2 2 2 4 4 4 . ; 5 5 ; 6 6 6 6 ",
"u u q u 0 @ @ 0 5 i i i p p p a s s s s d d d d f g f g h h h r j k k k O O l e z x c z v w w 2 k b b b n n m n M N N M k b b b ",
"q q q u 0 0 0 0 : , , 5 p p B B s s s s d B d B f f f g h h h r j k k k O l l e c V C Z A w v w b S S S m m m m N N N N b S S S ",
"q q q q 0 @ @ 0 i i i i a B p B s s s s d d d d f f f g h h h h j k k k l l l o D F G x A w v w b S S S m m m m N N N N b S S S ",
"u u u u 0 0 0 0 t H t t p p p p s s s s J J J J f f f g r h h r j j j j e e o q D F G x A w v w k b b b m m m n M M M M S S S b ",
"K K L K : - , P z x c z 2 I I I U U U @ z x x z Y J T R E E E E W W W Q z c D D G G F x 4 9 6 9 ! U U U J J p p ~ ~ $ ~ i 5 5 5 ",
"L L L L : , , t x V V Z 2 I I I ^ ^ ^ @ Z V V x Y R T T / E / / = = W Q Z V C C G G F x 4 9 ! ! r r r r g g g g $ $ $ ~ i 5 5 5 ",
"L L L L : , , t D F G x 2 I I I ^ ^ ^ @ x G G D ( J J R / / E ) W W W Q x F G G _ _ ` Z 4 9 ! 9 r r r U g f f p $ % % $ i 5 5 5 ",
"K K K K : , , P D F F x 2 I I I ^ ^ ^ @ c F F c ' ( Y Y / / / / Q Q Q ] x F G G [ { } | 3 4 4 4 . @ @ @ * T T T d  . . .i 5 5 5 ",
"........P / P ) x F F X.' ( Y ( o.o.o.O.| +.@.#.c D x z ; ~ ~ ; z Z x x G G _ [ $.%.&.$.| Z x x x x x x x D x D D D c z R *.1 *.",
"=.=.=.=./ / P -.c F ;.c ' ( Y Y o.o.u O.| #.@.@.F F :.c >.~ ~ >.c :.G F G ;._ [ ,.<.1.2.} C F F F F F C C C C C C F :.c R *.1 *.",
"=.=.=.=.R / P ) Z ` ` Z ' ( ( ( u u q O.| +.@.3.G G ` X.>.~ ~ >.X.` _ _ _ _ 4.[ 5.6.7.5.8.` 4.4.G G G G _ _ _ 9.4.4.` X.J  .*.*.",
"..d ..B ) -.) W 0.q.q.0.= ' ' ' O.O.O.-.w.e.r.r.[ { } t.R >.>.R t.} { [ [ [ 8.q.&.y.u.i.p.q.a.q.;.G G G [ [ [ { a.a.q.0.E R R R ",
"! ! ! X z c Z 0.s.d.d.s.0.Z c x c c X.t.$.%.f.g.&.,.2.$.t.D D t.$.h.f.i.i.&.i.&.j.k.l.z.x.c.d.v.b.n.#.m.$.,.M.N.x.B.d.s.0.X.D D ",
"V.V.! . Z C ` q.d.C.Z.d.q.` ;.F C C ` } ,.A.y.A.u.S.N.h.} V V } D.F.A.k.G.j.G.H.S.S.J.K.L.P.C.d.I.+.@.r.U.F.7.Y.T.P.C.d.q.R.F C ",
"V.V.! . x _ 4.a.B.P.P.c.E.R.9.4.G G 9.{ 5.l.W.Q.6.6.G.f.[ 9.9.[ !.~.U.U.u.H.S.7.W.~.h.^./.(.)._.b.`.3.m.!.S.%.'.].[.).c.a.4.;.G ",
"V.V.! . | } 8.p.x.{.L.}.|.E.a.q.;.G _ [ G.Y. X^.U.Q.J..XE.[ [ q.A.XX Xz.,.f.,.h.^.oX'.OX+X[.P.B.@X#Xr.$XA.XX'.OX+X[.P.c.a.` ;.G ",
"H t H %X&Xg.,.,.^.K.^.*X=X_.d.s.b.+.+.b.x.{.{.}.-X;X:X>X!.,.!.H.,X+XT.x.@X#X#X@X=XT.].+X<X1XP.2XN.M.M.1.3X{.2X+X<X[.P.B.a.4.;.G ",
"H H H %X4XA.N.u.~.U.%.^.{.P.Z.5XI.3.#.I.d.P.P.+X6X7X;X8X6.N.J.K.9XP.P.B.b.n.n.b.B.P.[.[.[.<X[.2X0X6.u.K.{.P.1X[.<X<XqX_.a.4.;.;.",
"H H H y 4XJ.6.J.A.<.6.XX+XqXP.B.wXeXeXwX_.rX[.d.6X7X;X8XU.G.W.^.{.P.Z.d.b.n.n.b.tXC.1XP.P.P.Z.T.'.D.h.F.].[.[.<XP.).C.d.E.R.4.4.",
"%X%Xy yX4XJ.7.6.&.%.5.H.3X+X{.=XuX$X$XuXB.P.1Xd.iX;X:XpXW.u.U.^.}.tX+Xx.@X#X#X@Xs.d._.c.c.c.d.=XOX^.^.*X+X).[.<XB.c.d.v.|.E.a.a.",
"4X4X4X4X7.j.H.%.$Xm.m.$XA.Y.'.*X=Xd._.B.<X(.qX+XF.D.U.U.J.S.S.~.iX6X6X-X5.,.,.$.@Xb.I.I.I.I.$XuX=XT.5X9X[.<XP.B.uX$X$XuXv.tXc._.",
"J.j.J.J.J.j.j.&.m.3.3.m.M.7.f.'.{.Z.P.qX1X<XrX2X X~.S.k.7.J.j.Q.aXsXsX;XJ.1.A.D.#X`.+.n.n.3.eX$Xd.Z.[.(.[.<XP.c.$XeXeX$X5XC.rXP.",
"U.~.U.~.k.H.N.Q.m.3.3.m.D.H.~.K.+XP.1X[.[.[.[.+XdXJ.y.G.k.G.j.W.pXaXaXpXh.~.fXg.r.3.@.@.@.@.`.b.c.P.gX[.1X(.Z.d.I.n.+.I.B.P.[.[.",
"^.z.^.z.,.g.,.$.wXm.m.$XM.J.%.F.3XL.+X9X[.[.).2XN.!.%.&.7.6.S.W.;XsXsXaXhXjXjXkX$Xm.r.r.r.lXzX@Xc.P.<X<X+X].T.x.@X#X#X@Xx.T.+X2X",
"+X/.T.x.@X#Xr.wX$.,.%.!.pX8X8X>X'.oX'.*X+X[.P.B.@X#Xr.$X%.S.k.&.xXzX} cXvXbXnXvXkXg.%.,.,.&.!.H.9X[.[.+X*X'.oX^.h.i.5.&.z.0XoX0X",
"P.(.Z.5Xb.`.#.m.h.A.H.7.:X;X;X8X,.J.h.'.+X[.qX_.b.n.#.r.f.S.j.&.r.@.mXcXMXNXNXbXjXy.A.1.y.y.J.oX/.[.1X2X^.D.W.S.k.<.k.A.BXW.~.W.",
"[.<XP.c.b.`.3.m.M.~.BX&.8X;X;X:XW.VXJ.dXL.P.Z.5X$XeXn.#X,.G.H.,.#Xn.C CXMXNXZXnXhXh.~.l.k.A.l.K.T.P.Z.T.^.Q.7.~.J.6.S.S.1.N.N.H.",
"[.[.P.c.@X#Xr.$XH.K.K.'.>X8X8X>XW.u.U.^.3X+X{.=XuX$XI.@X2.j.u.h.@XI.b.AXvXSXSXDXFX0XK.dXBXBX2.F.x.5Xd.=X*X^.K.^.S.j.k.S.h.&.&.,.",
"[.[.rX+XA.!.&.1.,X9X+X3X'.,.U.l.S.S.j.k.^.K.'.OX}.d.d.=X^.BXBX Xx.d.c.B.GXGXGXGX+X].{.}.iX;XpXaXI.I.$XuX=X{.+Xc.^.U.N.,.$Xm.r.r.",
"[.gX[.].K.k.S.K.{.P.).{.Y.W.G.k.u.j.j.S.BX~.h.'.{.P.P.{.^.W.BX0XT.Z.P.P.rXrXrXrX[.[.P.5X6XsXaXsX@.n.eXwXB.P.).+XK.J.N.f.m.3.@.@.",
"P.P.Z.T. XBXU.z.{.P.qX{.K.~.H.k.u.j.u.j.G.N.7. X+XqXP.{.oXj.j.XX+XP.1X1X).1X).1X(.(.Z.+X-X7XaXHXm.@.n.I.5XC.P.{.F.2.j..XzX`.+.n.",
"c._.d.=X^.J.l.dX3X{.{.3Xy.!.D.%.J.k.6.j.Q.Q.2.'.3X{.{.,XA.5.&.A.3X9X9X9X+X2X+X2X5Xd.+X}.iX;XpX;X#X@.n.b.v.d.B.}.*X^.XXA.@X$XI.I.",
"I.I.b.@X,.S.~.G.^.Y.XX1.$Xm.m.$X&.k.G.U.pX8X8X>XF.0XoXH.$Xm.m.$XA.XX XK.oXoXoX'.iX-X6X-XD.Q.~.5.r.#.@.@.b.I.$XuX=XT./.+Xc.c.c.c.",
"n.n.`.zX%.S.7.S.l.U.J..Xm.#.#.r.,.G.J.U.aX7X;XaXD.BXJ.!.r.3.#.r.5.J.BX~.l.BX~.2.;XsX7X;Xl.S.1.h.r.#.@.@.n.+.eXwXd.P.[.[.qXP.P.qX",
"@.@.3.r.&.k.u.j.fX~.y.g.#X`.`.#X2.A.H.6.pXaXaXpXBXG.VX%.#X`.`.#XU.1.A.N.u.S.G.J.8X;X;X:XW.S.7.,.m.+.#.#.@.zX+.I.d.Z.[.qXqXP.P.P.",
"r.r.m.$X&.H.S.j.hXjXjXkX@Xb.b.@X$.D.D.!.;XsXsXaXQ.S.k.D.@Xb.b.@X$.D.f.f.7.j.j.W.pX8X8XpXBXG.G.,.$Xm.r.r.@.@.n.b.}.T.2X+Xc.c._.c.",
"5.,.5.,.S.u.~.jXvXbXnXDXJX_.d.v.@X#XlXr.m.m.zXxX%.1.U.'.=Xd.d.v.@X#Xm.$X,.u.S.S.BXW.W.BXj.j.S.S.,.,.2.$.r.#.#.r.<.Y.K.A.@Xb.I.I.",
"N.1.N.1.j.k.~.jXnXNXZXKXGXqXC.d.b.`.@.#.@.@.3.m.&.<.U.K.L.P.C.d.b.`.#.m.%.<.6.j.A.A.y.k.G.S.S.S.<.k.F.D.lX@.@.r.M.W.l.5.#X`.+.n.",
"W.~.W.W.G.u.fXjXnXNXZXSXGX[.)._.b.`.@.#.#.#.+.m.&.VXW.dX].[.rX_.b.`.#.m.M.7.Q.BXBX~.BXl.l.BXW.BXW.Q.S.5.#X`.`.#XQ.1.1.U.r.#.@.@.",
" XoX X^.S.u.fXjXvXbXnXDXGX[.P.c.@X#XlXr.r.r.m.$X%.y.~.0X+X1XP.c.@X#Xr.$X1.Y.z. XoXK. XK.dX0XY.0XoX^.Y.N.@Xb.b.@X$.,.%.$.xXzXm.#X",
"+X9X{.c. X~.G.u.jXhXhXLX9X[.[.+XN.!.D.5.,.,.%.&.j.j.~.oX+X1XrX+XA.!.M.1.3X{.+X2X+X+X+X+X+X+X9X+X9X9X9X+XB._.d.v.@X#Xr.xXsX7XHXHX",
"rX[.P.{.K.~.u.7.fX~.h.0X+X[.(.+X0X6.H.A.N.H.y.A.S.S.~.oX+X[.(.+X0Xj.6.K.+XP.(.1X).(.rXrX).).).[.(.1X[.1XP.P.C.d.I.n.@.#X;X:XaX8X",
"[.<X[.2XdXl.H.6.6.j.J.Y.2X[.[.2X XU.J.7.BXU.W.W.W.~.D.'.+X[.1X+X^.l.BX^.{.P.[.[.[.<X[.1X[.1X[.[.P.P.P.P.1XgXqX_.$XeX+.@.PX7XsXsX",
"[.[.rX2X'.%.W.U.J.j.U. X2X[.[.2XoXJ.k.u. XY.oXoXoXY.'.OX+X1X[.+X Xl.~. X,X{.+X+X[.[.[.[.<X<X(.<Xc.c.B.B.<X<XP.B.uX$XI.I.>X-X6X6X",
"(.[.P.d.iX;X:XpXU.k.BXz.+X(.1X2X0XBXJ.^.3X{.+X+X+X+X9X+X<X[.rX+X^.Q.G.G.z.Y.'.*X+X).1X[.[.<XP.B.uX$X$XuXc.P.[.[.B._._.c.tX5Xd.d.",
"[.<XrXd.6X7X;XaXU.k.BXoX+X[.[.+X^.~.~.0X+XP.[.[.(.P.1X1X<XgX[.].oXl.G.k.U.BX%.'.].(.gX<X<XgXP.c.wXeXeXwXc.qXgX[.P.P.qXqXrXrXrX).",
"qXrXZ.+X-X7XaX:XW.H.U.z.2X[.[.+X Xl.J.oX{.P.[.rX[.1X(.1XP.P.Z.T.^.h.W.~.u.G.~.0XT.Z.qXP.P.P.C.d.I.#.3.I.d.Z.[.[.rX1X[.[.[.[.[.[.",
"d.5X+Xx.6X7X;X8XBXG.l.^.+X(.[.2XK.J.W.^.}.+Xd.tX+X+X+X2Xc.c.5X=X*X^.XXz.6.u.~.^.x.d._.c.c.c.d.v.b.+.+.b.x.T.2X+Xd.d.5Xd.+X2X+X+X",
"-X6X-X6XaX;X;X:XW.k.Q.K.9X1X[.2XK.BXG.~.iX6X6XiXF.oXXX1.@Xb.$XuX}.{.+X,XdXl.A.h.@Xb.I.I.I.I.I.b.zX@.#.r.N.0X0XF.iX6X6XiX'.Y.oXoX",
"7X7X7X7X;X;X;X8XW.H.BX X+X[.[.2X XU.G.Q.aX7X7X;X&.l.J.5.#Xn.eX$XB.Z.P.{.oX~.A.&.#X`.3.+.n.n.n.n.@.zX#.r.!.7.~.%.;XsXsX;X&.J.BXBX",
"7X7X7X7XaXaXaXpX~.G.BXK.{.P.P.{.0XW.H.W.aX7X7XaX7.N.1.h.r.#.n.I.c.P.1X/.oXW.N.f.#X`.3.3.@.zXzX@.#.#.+.m.h.y.u.l.pXaXaXpXU.k.k.j.",
"6X6X-X6X7XHXsX;X&.~.2.'.}.+XtX}. XBXu.U.iX6X6XiXM.i.h.$.wXr.#X@Xc.P.[.+XoXW.<.%.@Xb.I.b.@.@.@.@.r.lXm.$X,.S.7.Q.;XHXHX;Xh.u.J.j.",
"tXd.9Xx.I.@.#Xr.;XpX8XpX6X-X6XiX~.G.l.^.}.d.+Xx.@XzXm.wX$.Q.!.1.+X1X[.2X XW.6. X=XB.d.v.b.n.@.r.$.h.&.D.6.S.N.D.xXzXzXxX%.H.k.j.",
"1X[.Z.d.b.`.#.zXsX;X;X;X7X7XsXaXQ.k.~.K.{.P.Z.d.b.`.3.m.%.F.J.XX+X1X[.2X Xl.U.dXL.P.C.5XI.+.@.r.Q.N.j.k.u.k.<.,.r.#.#.r.%.y.S.6.",
"[.[.Z.d.I.n.@.#XHXaX;X;X;X;X;X8XBXA.BXK.9XP.P.B.b.`.#.m.%.N.W.^.{.P.P.{.Y.~.J.dX{.rXrX_.I.n.@.r.h.N.j.H.J.~.u.M.m.3.3.m.&.A.j.6.",
"5Xd.+Xx.b.n.@.#XHXaX;X;X8X:X8X>X~.j.BX X3X+XL.=X@X#Xr.$X&.k.BX^.3X{.+X3X X~.BXdXJXGXGXJXI.+.@.r.$.h.&.,. X^.Y.1.$Xm.m.wX,.H.j.j.",
"6X6X-X>Xm.#.@.m.7XaX;X8X,.W.U.W.6.S.S.S. XoXoX X%.i.i.,.j.j.G.u.^.Y.K.z.S.k.fXjXDXSXSXvXcXmX@.@.r.lXzX@X=X{.+X,X1.M.,.&.7.7.S.j.",
"7X7X7XPX#X@.@.#X7XaX;X:X~.S.k.G.S.u.j.k.l.~.BXl.k.H.H.H.S.S.j.7.U.U.BXBXS.6.fXjXnXZXZXMXcXmXzX@.#.@.`.b.d.Z.P.{.Y.l.<.G.j.S.7.u.",
"aXaXaX7X#X@.@.#X7XaX;X8XU.G.6.6.j.j.6.u.k.G.k.G.6.6.J.j.J.k.S.6.6.6.j.G.7.u.~.jXIXNXNXMXcXmXzX@.@.zX+.I._.P.(.+X XQ.S.j.G.j.6.S.",
";X;XaXHX#X@.#.#XHXaX;X:XU.j.S.7.S.7.j.6.6.S.j.j.S.6.u.J.j.J.6.6.6.6.J.7.S.j.fXhXIXZXNXMXcXmXzX@.@.zXn.I.c.P.[.2X XU.G.S.S.j.j.6."
};
