/* XPM */
static char *result[] = {
/* columns rows colors chars-per-pixel */
"64 64 256 2 ",
"   c #E8DFB2",
".  c #EBE2B6",
"X  c #E6DDB2",
"o  c #E0D8AC",
"O  c #E1D9AD",
"+  c #F1E8B9",
"@  c #F2E9BA",
"#  c #E9E0B5",
"$  c #E9E1B1",
"%  c #EAE1B6",
"&  c #EAE1B4",
"*  c #E5DDB1",
"=  c #F3EABB",
"-  c #E9E0B6",
";  c #E8E0AF",
":  c #EAE1B5",
">  c #E6DDB0",
",  c #DFD7A9",
"<  c #E0D8AA",
"1  c #DED8AB",
"2  c #EFE6B8",
"3  c #F0E7B9",
"4  c #F0E7B8",
"5  c #E8DFB3",
"6  c #E6DEB4",
"7  c #E8E0B4",
"8  c #E9E0B3",
"9  c #E9E1B4",
"0  c #E4DBA9",
"q  c #D9D0A3",
"w  c #D7CDA3",
"e  c #D9D1A2",
"r  c #DBD2A1",
"t  c #DCD3A2",
"y  c #D5CD9F",
"u  c #CFC893",
"i  c #CEC791",
"p  c #D6CF9C",
"a  c #D6CF9D",
"s  c #D8D1A0",
"d  c #D5CF9D",
"f  c #D4CF9B",
"g  c #E3DFAF",
"h  c #E5E0B1",
"j  c #E6DFB6",
"k  c #E5DDB6",
"l  c #E4DCAE",
"z  c #E4DBA7",
"x  c #D6CCA1",
"c  c #D8D0A1",
"v  c #DAD19F",
"b  c #D2CA9D",
"n  c #CCC690",
"m  c #CBC48F",
"M  c #D3CE9A",
"N  c #D4CC9A",
"B  c #D7D09E",
"V  c #D4CD9C",
"C  c #E3DCB4",
"Z  c #E6DCAA",
"A  c #D5CF9A",
"S  c #D5CE9C",
"D  c #E1D9A7",
"F  c #D9D09E",
"G  c #E2DBAE",
"H  c #E2DBB3",
"J  c #E1DBAC",
"K  c #E2DAAB",
"L  c #C7C288",
"P  c #C8C38A",
"I  c #D3CC91",
"U  c #D2CB8F",
"Y  c #C7C184",
"T  c #C7C083",
"R  c #CBC484",
"E  c #CAC589",
"W  c #C5C083",
"Q  c #C4BF84",
"!  c #C7C185",
"~  c #C7C07F",
"^  c #C8C181",
"/  c #C4BD7D",
"(  c #C3BC7C",
")  c #C3BC76",
"_  c #C4BD76",
"`  c #CDC788",
"'  c #CFCA98",
"]  c #C5C08E",
"[  c #C3BD80",
"{  c #C5C086",
"}  c #C6C081",
"|  c #C6BF7F",
" . c #C9C381",
".. c #CAC587",
"X. c #C4BF82",
"o. c #C6BF7D",
"O. c #C3BB7A",
"+. c #C2BB79",
"@. c #C2BB77",
"#. c #C2BA72",
"$. c #C1B970",
"%. c #CCC587",
"&. c #CDC785",
"*. c #CDC996",
"=. c #C2BD8A",
"-. c #C0B97C",
";. c #D1CB8C",
":. c #C9C487",
">. c #CCC684",
",. c #C0B97A",
"<. c #C9C285",
"1. c #C9C389",
"2. c #CCC78B",
"3. c #CEC88C",
"4. c #CAC382",
"5. c #C6BE78",
"6. c #CFC88A",
"7. c #C9C28D",
"8. c #EFE7BE",
"9. c #F1EBC1",
"0. c #F0EAC0",
"q. c #E4DDB3",
"w. c #EAE2B2",
"e. c #C9C37E",
"r. c #EDE6BF",
"t. c #F0E9C2",
"y. c #EFE7C0",
"u. c #E7DFB9",
"i. c #E6DFB8",
"p. c #E0D9B0",
"a. c #C0B975",
"s. c #BDB56D",
"d. c #C1BA75",
"f. c #ECE3B3",
"g. c #EFE5B7",
"h. c #F3ECC3",
"j. c #EDE4B5",
"k. c #F2EBC6",
"l. c #F2EAC4",
"z. c #E9E1BC",
"x. c #E8E0BB",
"c. c #E6DFB3",
"v. c #BFB771",
"b. c #BBB36B",
"n. c #D9D2A4",
"m. c #DAD4A6",
"M. c #DAD2A6",
"N. c #D9D29D",
"B. c #D8D09B",
"V. c #D6CF99",
"C. c #CBC581",
"Z. c #CAC47F",
"A. c #DFD8A0",
"S. c #E1D9A5",
"D. c #E0D8A4",
"F. c #E6DEA8",
"G. c #C5BE7C",
"H. c #DCD5A9",
"J. c #D8D09D",
"K. c #D8D19C",
"L. c #DCD4A1",
"P. c #DED6A3",
"I. c #E3DCB2",
"U. c #DED6A1",
"Y. c #D7CFA1",
"T. c #D8D0A4",
"R. c #D6CF98",
"E. c #D5CE98",
"W. c #DDD69F",
"Q. c #DED79F",
"!. c #E0D7A3",
"~. c #C1B96E",
"^. c #BFB76E",
"/. c #C2BA75",
"(. c #E1D8AC",
"). c #E3DAAF",
"_. c #E2DAAE",
"`. c #DAD39E",
"'. c #DCD49F",
"]. c #E0D8A7",
"[. c #E4DDB1",
"{. c #D6CF9F",
"}. c #E0D9AC",
"|. c #DED7A6",
" X c #DDD5A5",
".X c #C4BC73",
"XX c #DAD19E",
"oX c #DCD5AC",
"OX c #DAD3AA",
"+X c #C3BC7B",
"@X c #D7D0A4",
"#X c #E0DAAE",
"$X c #DCD4A5",
"%X c #C0BA77",
"&X c #DDD7A8",
"*X c #CEC88E",
"=X c #CBC68A",
"-X c #DED8B0",
";X c #DFD8B3",
":X c #C0B972",
">X c #C5BD74",
",X c #DFDAAC",
"<X c #DDD7AA",
"1X c #DDD7AD",
"2X c #DBD4A8",
"3X c #CDC78A",
"4X c #CAC388",
"5X c #BDB670",
"6X c #BDB674",
"7X c #E1DAB1",
"8X c #C4BD7B",
"9X c #C8C079",
"0X c #CAC48C",
"qX c #DCD6A8",
"wX c #ECE5BC",
"eX c #E7DEB1",
"rX c #EBE4BB",
"tX c #CCC793",
"yX c #CAC58E",
"uX c #E9E2B7",
"iX c #ECE3B8",
"pX c #EDE5BE",
"aX c #ECE4B5",
"sX c #F5EBBC",
"dX c #C8C386",
"fX c #EAE3B9",
"gX c #E3DAAE",
"hX c #DBD2A3",
"jX c #E2DBAA",
"kX c #C3BC78",
"lX c #E2DAA9",
"zX c #E0DAA8",
"xX c #E3DAAD",
"cX c #DAD39B",
"vX c #DFD9A8",
"bX c #C7BF78",
"nX c #C3BB70",
"mX c #E4DCB0",
"MX c #DDD6A6",
"NX c #D8D199",
"BX c #DBD6A1",
"VX c #C9C17C",
"CX c #C6BE75",
"ZX c #C5BD71",
"AX c #DCD7A2",
"SX c #D7D197",
"DX c #EDE4B7",
"FX c #E9E3C0",
"GX c #E5E0BA",
"HX c #EDE7C5",
"JX c #D7D1A6",
"KX c #DFD9B0",
"LX c #EBE5C2",
"PX c #E8E0B3",
"IX c #E6E0BB",
"UX c #ECE3B9",
/* pixels */
"        . . . . . . . . X X X X o o o o o o o O + @ @ + # # # # # # # # + @ @ + $ $ $ $ # # # # % % % % + @ @ @ @ @ @ + & & & & ",
"        . . . . . . . % X X X * o o o o o o o O + @ @ + # # # # # # # # + @ @ + $ $ $ $ # # # # % % % % + @ @ @ @ @ @ + & & & & ",
"        . . . . . . . . X X X X o o o o o o o O + = = @ % - - - # # # % @ = = @ $ $ $ $ # # # # % % % . @ @ @ @ @ @ @ @ & & & & ",
"; ; ;   : : : : : : : : > * * * o , < , 1 1 1 o 2 3 4 4 5 6 6 6 5 5 5 5 4 4 4 4 ; ; ; ; 5 5 5 5 7 8 7 # + + + + + + + + & 8 9 9 ",
"0 0 0 0 q w w w e e e e r t t r q q q q w w w w y y y y u i i u p a a a a a a a s s s s t t t t d d f d g h h h j k j k l l l l ",
"0 0 0 z w x x x c c c c v r r v c q q c w w w x b b b b n m m n M f M M N N N N B B B s v v r v M M M V g g g g C k k C l l l l ",
"Z 0 Z 0 w w w w q q q q r r r r q q q q w w w w b b b b n n n n A d A d V V V S s s s s r r t r V M M d g h g h j k j k l l l l ",
"D D z D w x w x c c c c v v v v c c c c x x x x b b b b n m m n M M M M N N N N a B a B F F v F M M M f G g g g H C C H J K K K ",
"L L L P M f f f I U U U Y T T T R R R R L L L L E E E E W Q Q Q Y Y ! Y ~ ^ ^ ~ / ( ( ( ) ) ) _ ` ` ` ` ' ' ' ' ] ] ] ] [ [ [ [ ",
"Q Q Q { M f f f U U U U } | } } ^  . .^ Y ! ! ! ..E E ..X.X.X.X.W W W W ~ o.~ o.O.+.+.@.#.#.$.#.%.` &.` *.*.*.*.=.=.=.=.-.-.-.-.",
"{ { { { M M M M U U U ;.} | | |  . . . .W W W W :.:.:.:.X.[ X.[ X.X.X.X.o.o.o.o.O.O.O.O.$.$.$.#.>.&.>.` *.*.*.*.=.=.=.=.-.,.-.-.",
"{ { { L d B B a I I I I <.! <.!  . . . .1.1.1.1.2.3.3.2.L L L L L L L L 4. . .^ O.+.+.O.5.5.5.5.6.6.6.3.' ' ' ' ] ] ] ] X.[ X.X.",
"7.7.7.m 8.9.0.0.q.q.q.q.w.w.w.$ >.e.e.>.r.t.y.y.4 4 4 4 2 2 4 2 u.i.i.i.C H C p.a.s.s.d.f.4 g.g.C H C H * * * 6 2 4 2 2 2 2 2 2 ",
"7.7.7.n 0.h.h.9.j k k 6 j.j.g.f.>.e.e.&.y.k.l.l.= @ = = = = = @ z.x.z.x.k k k H a.s.s.d.4 = = @ k k k k j c.c.7 @ = = = = = = = ",
"7.7.7.n 0.h.h.9.j k k 6 j.j.g.w.>.e.e.&.y.k.l.l.@ @ @ @ @ @ @ + z.x.x.x.k k k H v.b.b.a.2 = @ + k k k k c.c.c.5 @ @ @ @ @ @ @ @ ",
"7.7.7.n 8.9.0.0.q.q.C q.w.f.f.$ >.e.e.>.8.l.t.t.+ + + + + + + 3 u.u.u.u.H H C p.+.v.v.O.j.+ 4 4 C C C C c.c.c.c.4 + 4 4 + + + + ",
"4.4. .R n.m.m.M.N.N.N.N.B.B.B.V.C.Z.e.C.A.S.D.D.F.F.F.F.S.S.D S.F F F B.5.) ) G.H.o < , J.J.J.K.L.L.L.P.I.q.q.I.c J.B s U.U.U.U.",
"Z.Z.Z.C.Y.T.c c K.B.K.B.R.E.V.E.C.Z.e.C.W.A.Q.A.z F.F.z D.!.D.!.B.V.B.E.#.~.^./.(.).)._.p A A V.`.'.`.L.I.q.q.I.a S S a '.'.'.'.",
"Z.Z.e.C.s n.n.n.K.K.K.K.V.V.V.E.C.Z.e.C.Q.A.A.A.F.F.F.F.D.D.D.!.B.B.B.V./.$.$.) < _._.(.B.p p p '.'.'.L.I.q.q.I.B p a a L.U.U.U.",
"R R 4.>.s n.e e K.K.K.K.V.V.V.E.C.Z.e.C.Q.A.A.A.z z z z S.].S.D.B.B.B.V./.$.$.) < )._.(.p p p p `.'.'.L.I.I.[.I.{.a a B `.`.`.`.",
"Y.Y.Y.Y.V.V.V.V.V.V.V.V.`.'.'.`.C.Z.e.C.< }.}.}.|. X X|.  8     !.P.!.L.5..X.X5.< _.O (.J.B.J.J.XXXXXXXX X X X XoXOXoXOX[ +.+X+X",
"@X@X@X@XV.R.V.V.V.V.V.V.'.'.'.`.C.Z.e.C.1 #X}.}. X X$X X  8 8   D.!.|.L.5..X.X5.< _.O (.F J.J.J.XXXXXXXX$X X X XoXoXoXOX+.a.%X%X",
"@X@X@X@XV.V.V.V.V.V.V.V.'.'.'.`.C.Z.e.C.1 #X}.}. X X X|.  8 8   ].!.].U.5..X.X5.(.)._.O J.p J.J.XXXXXXXX X X X XoXoXoXOX( %X,.%X",
"@X@X@X@XE.E.E.E.E.E.E.R.`.`.`.N.C.Z.e.C.&Xo 1 1  X X X|.  8 8   P.L.U.'.5..X.X5., (.< < v J.J.F v v v v $X$X$X$XoXoXoXOX( a.%X%X",
"M.M.M.n.*X3.3.3.3.3.3.3.=X=X=X=XZ.Z.Z.Z.2.2.=X*X-X;X;X;XH H C p.O.:Xd.d.>X>X.X_ L P L P ,XG #X#X<X<X<X<Xs {.{.Y.oX1X1X2X( a.%X%X",
"M.M.M.n.*X3.3.3.3.3.3.3.........Z.Z.Z.Z...E ..2.;X;X;X;XH I.C p.d.^.v.v.>X_ >X_ Q { Q L ,XG G G 1 1 1 <X{.B B {.oX1X1X2X( %X,.%X",
"M.M.M.n.3.3X3X3X3X3X3X3X..:.:.:.e.e.e.e...4X..=X;X;X;X;XC H C p.a.s.5X5X.X.X.X.XQ { Q L }.G G G 1X1 1X1 s {.{.Y.1X1X1XH.+.6Xa.a.",
"e T.n.c U U U U U U U *X2.2.2.2.&.>.>.&.2.3.2.*X-X;X;X;X7Xp.7X#X8Xd.@.@.5.9X5.9X1.1.P 0X1 }.,X,X<X<X<XqXB d d d 2X2XH.M.X.( / / ",
") _ /.G.wX8.8.8.& 8 9 8 > > > eXy.y.y.y.rXrXrXx.tXyXm yXP L L 0X; $ $ $ $ $ $ $ 4 4 + g.E ! ! L *.*.*.tXR 4.R 4.( ( +.X.uXwXrXrX",
"#.#.^.5.8.l.t.t.iX. iX. 8 5   8 l.k.k.l.r.pXr.rXn P 0XP { { Q L w.j.aXj.aXj.aXj.= = sX+ dX[ X.W tXtXtXtX4. . .^ %X%X6X( rXy.r.y.",
"$.$.^._ 8.9.t.t.. . . .       8 t.l.l.l.r.pXr.rXn P 7.P Q Q Q L $ j.f.f.f.f.f.aX= = sX+ dXX.W W tXtXtXtX^ ^ ^ ^ ,.%Xa./ rXr.pXr.",
"5.5._ ~ wXy.8.8.. : . : eXeXeX  y.t.t.t.rXfXrXuXi yXn yXP P L 0X$ f.w.w.w.w.w.w.@ @ = 2 1.X.W ! *.' *.*...R ..R +.%Xa./ rXy.r.r.",
"rXrXrXfX2Xm.m.2XgXgX).gXhXr t t P.P.P.L.R ^ ^ R ; w.$ w.i.i.i.i.oXOXOXOX`.`.`.'.jXjXl jX;.6.6.U g.3 4 2 8   8 > } 8X8XT rXy.r.r.",
"y.y.y.pXm.n.n.n.O gXgXO r v r r r r L.XXo.5.kX~ w.j.f.aXz.z.z.x.OXOXOXOXK.K.K.N.lXjXjXzX;.6.6.U + = @ @ . : . 5 } 8X8X^ rXy.r.r.",
"r.r.y.pXm.n.n.M._.gXgXxXr r r r L.L.L.`.~ o.G. .$ aXf.f.x.x.x.u.OXOXOXOXN.cXN.N.jXjXjXlX;.;.6.U 4 = @ @ : : .   } 8X8X^ rXy.r.r.",
"wXwXwXrXm.n.n.m.O gXgXO t r r r L.L.L.v ~ G.8X^ $ aXf.f.u.u.u.i.OXOXOXOXN.N.N.`.zXlXlX].;.6.` ;.2 @ + + : 8 : eX} 8X8XT rXr.wXpX",
"p B.p K.vXzXvXzXzXzXzXzX].].].].v v v F _ .X#.bX> & 8   <XH.&X&X#X#X#X#X&XqX&XqX{.d {.V /.$.^.) l X > * J ,XJ vX/ @.@./ <X,X,X,X",
"E.E.E.A vXzXzXzXzXzXzXzXzXzXzX].v XXv J._ .XnX5.> 8 8   H.2XqXH.G G G G &X&X&XqXd V y N :X^.^./.G * mXl ,XvX,X&X8X%X%X/ qX1 <X<X",
"A A A p zXjXzXzXzXzXzXzXzXzXzXzXv v v F _ #.nX5.> & 8 5 &XH.H.H.#XG G #X&X&X&XqXy y y N :X^.^./.xXeX* * J ,XJ vX/ %X%X/ &X,X1 ,X",
"E.E.E.E.|.].|.|.|.|.|.|.|.|.|.|.v F v B.5..X.XbX> 8   eXH.2XqXH.G G G G &XqX&XMX{.d {.V /.$.^.) G * mXl vX&XvXMX8X@.@.8Xm.&XqXqX",
") ) ) ) | ~ ~ ~ ~ ~ ~ ~ ~ ~ o.^ N S S E.>.R R %.N.`.`.`.N.N.N.`.[.6 6 [.cXNXcXcXBXBXBX`.<.Y Y 4X1X-X-X1XVXbX9XbXCXCXCX>X/./././.",
"#.#.#.#.8XG.8XG.8X8XG.8X8X8X8XG.E.A A N %.>.>.` NXN.K.K.cXN.K.N.[.6 6 [.cXNXNXNXBXBXBX`.4X<.<.E oX-X-XoXbXZX>X>XCXCXCXCX^.^.^.^.",
"$.$.$.:X8X8X8X8X8X8X8X8X8X8X8XG.N S S E.` >.>.` cX`.N.N.N.N.N.`.[.6 6 [.cXNXcXcXBXBXAXBX<.Y ^ dX1X-X-X1XbXZX>X>XZXZXZXZX^.^.^.^.",
"5.5.5.5.^ ^ ^ ^ ^ ^ ^ ^ ~ ~ | ^ E.N N E.>.R R >.V.NXNXNXNXNXV.K.mX[.[.mXNXSXSXNX`.`.`.N.=XE 4X=XH.1X1X2XVXCX9X9X9X9X9X9X@./.@.@.",
"aXj.aXaXj.j.j.j.j.j.j.f.< , < &X4X! dX! v.5X5X5X5.5.5.5.5.5.5.9XNXcXcXNXG.kX+XkX+X8XkX| c.uXuXc.VXbXbXVX!.S.D.S.fXrXfXfXfXfXfXfX",
"3 3 3 3 3 3 3 3 3 3 3 2 G J G < 1.T ! T 5Xs.s.s..X>X>X>X>X>X.X5.SXNXNXSXkXd.@.@.d.@.a.8XuXrXrX- 9XZXZXCXS.0 D 0 pXr.r.r.r.r.r.r.",
"2 2 2 2 2 2 2 2 2 2 2 g.G J G < dXW ! } s.b.b.b..X.X.X.X.X.X.XCXNXcXcXNXkXa.d.d.d.d.:X8X- rXfX- 9XZX>X9XD.D S.lXrXpXpXpXpXpXpXpX",
"2 2 2 2 2 g.g.2 g.g.g.DXK < }.&X=X4X4X4Xa.a.a.a.9X9X9X9X9X9XbXVXSXNXNXR.| / / G.8XG.8X~ 7 fXfX7 VX>XCX9XS.0 D 0 wXpXwXwXwXwXwXwX",
"$ $ $ 9 u.u.u.u.G K G K *X3X3X*X; $ $ $ f.aXaXf.$ $ $ $ $ $ w.; o.kXkX| z.FXFXFX> > > l H.2XOXM.E dXdX=Xl c.* c.GXGXGXGX7X7X7X7X",
"$ $ $ $ u.u.u.i.J }.J < 3X....3.w.aXf.aX2 3 3 2 j.aXj.aXj.aXj.w.8Xd.d./ FXHXHXHX8   8   2XM.2XJXE :.dX=X[.c.c.c.GXGXGXGXp.KXp.p.",
"$ $ $ $ u.u.u.u._.J G < 2.=X=X3.$ aXf.f.2 2 2 2 f.f.f.f.f.f.j.$ G.d.d./ FXHXHXLXPX    eX2X2XOXM.E :.:.=X[.c.eXc.GXGXGXGXp.p.p.p.",
"$ $ $ $ u.u.u.i.O < J , 3X....3X; w.w.w.DXg.g.DXw.w.w.w.w.w.f.$ G.d.d.G.FXLXLXFXeXeXeX> 2XM.2Xn.1.dXdXE [.c.c.c.GXGXGXGXp.KXp.KX",
"6 6 6 6 u.u.u.j {.S a S | G.G.| {.T.Y.Y.M.M.M.M.r v v r &X, , MX8Xd.d.+XJXOXOXJXB.B.B.B.S S a N /.:X:XkXG c.[.[.}.o ,X1 n.n.n.n.",
"6 6 6 6 u.u.u.j a N S N o.8X8Xo.y Y.y Y.@XT.@XT.F XXF XXqXqX&X$X8X@.@.+X@XJXJX@XV.V.V.A S S S N d.v.v.@.G q.[.[.1 < 1 <Xe c e e ",
"6 6 6 6 u.u.x.i.a N S N o.8X8Xo.y Y.Y.Y.T.T.T.T.XXXXXXXX&X&X1 MXkXa.d.+.@XOXJXJXp V.V.V.S V S N d.v.v.@.[.c.c.q.o 1 1 1 n.n.n.n.",
"[.[.mX[.k k k C {.S a S | G.G.| y Y.Y.Y.M.M.M.n.v v v v $X$XMXhX| 8X8X| @X@X@X@Xp p p p a p a N /.:Xv.@.}.mXG G 1 < 1 <Xc Y.Y.Y.",
"u u u u P P L 0X(.xXxXK =X:.:.=Xr hXr hX* c.c.c.-X-X-XoX[ ,.,.[ _.mXmX_.R  . .R MX< , , D D lXD.! X.W X.6X6X5Xa.W.!.!.W./.v.:X:X",
"i n i n ! { W L K l l xX2.E E =Xr hXt $Xc.PXPXPX-X-X-XoX,.6X6X,.mXj c.* C.VXVX4.&X1 < < lXlXlX].! X.Y X.b.b.b.5XW.!.!.W.:Xs.s.s.",
"n n i n ! { Q L xXl l xX=X:.:.E r $XhX$XPX7 7 7 KX-X;X1X,.6X6X,.mX6 6 mX4.VX~ 4.&X}.1 }.lXlX0 S.Y [ X.[ b.b.b.5XW.D.D.W.v.b.s.s.",
"u u u u 1.P P 0X< xXxX< 3.=X=X2.s r e r [.* * * 1XoX1XoX[ ,.,.[ ).6 6 mX>. .4.R $X&XMXMX].S.D !.1.! dX! 6X6Xv.a.'.U.U.'.kX:Xd.d.",
"GXGXGXi.9 9 9 PX;.3.3.3.W.Q.Q.'.4XdXdXdX:.:.1.:.( ( O.| < O K K D.D.D.D.F F F B.kXd./.@.%.3X` 3.l > > > w.w.& ; 9X>X>X9Xw.DXaXaX",
"IXIXIXIXiXiXUX: 3.%.%.3XQ.A.A.Q.<.} Y W W W W } %Xa.a.+XxX* mXl D.!.D.!.r v r F :X^.^.:XR %.R ` > 8   8 DXg.g.& CX~.~.CXDX@ 3 3 ",
"IXIXIXIXuX. iX9 3.%.` 3.Q.A.A.W.<.Y Y Y Y Y Y Y +.%X%X( K mXl gXD.D.D.D.v XXv B./.v.:X:X..%...3X> 5 eX  aXj.DXw.bXnXnXbXaX3 g.2 ",
"IXIXIXIX. . iX9 3.%.` 6.Q.A.A.Q.dXW Y Y Y Y Y W +.%Xa.( K mXl l D.D.D.!.v v v J./.v.:X:X..%...3X> 5     j.j.g.w.bXnXnXbXj.3 2 2 "
};
