/* XPM */
static char *result[] = {
/* columns rows colors chars-per-pixel */
"64 64 256 2 ",
"   c black",
".  c #010101",
"X  c #020202",
"o  c gray1",
"O  c #040404",
"+  c gray2",
"@  c #060606",
"#  c #070707",
"$  c gray3",
"%  c #090909",
"&  c gray4",
"*  c #0B0B0B",
"=  c #0C0C0C",
"-  c gray5",
";  c #0E0E0E",
":  c gray6",
">  c #101010",
",  c #111111",
"<  c gray7",
"1  c #131313",
"2  c gray8",
"3  c #151515",
"4  c #161616",
"5  c gray9",
"6  c #181818",
"7  c #191919",
"8  c gray10",
"9  c #1B1B1B",
"0  c gray11",
"q  c #1D1D1D",
"w  c #1E1E1E",
"e  c gray12",
"r  c #202020",
"t  c gray13",
"y  c #222222",
"u  c #232323",
"i  c gray14",
"p  c #252525",
"a  c gray15",
"s  c #272727",
"d  c #282828",
"f  c gray16",
"g  c #2A2A2A",
"h  c gray17",
"j  c #2C2C2C",
"k  c #2D2D2D",
"l  c gray18",
"z  c #2F2F2F",
"x  c gray19",
"c  c #313131",
"v  c #323232",
"b  c gray20",
"n  c #343434",
"m  c #353535",
"M  c gray21",
"N  c #373737",
"B  c gray22",
"V  c #393939",
"C  c #3A3A3A",
"Z  c gray23",
"A  c #3C3C3C",
"S  c gray24",
"D  c #3E3E3E",
"F  c #3F3F3F",
"G  c gray25",
"H  c #414141",
"J  c gray26",
"K  c #434343",
"L  c #444444",
"P  c gray27",
"I  c #464646",
"U  c gray28",
"Y  c #484848",
"T  c #494949",
"R  c gray29",
"E  c #4B4B4B",
"W  c #4C4C4C",
"Q  c gray30",
"!  c #4E4E4E",
"~  c gray31",
"^  c #505050",
"/  c #515151",
"(  c gray32",
")  c #535353",
"_  c gray33",
"`  c #555555",
"'  c #565656",
"]  c gray34",
"[  c #585858",
"{  c gray35",
"}  c #5A5A5A",
"|  c #5B5B5B",
" . c gray36",
".. c #5D5D5D",
"X. c gray37",
"o. c #5F5F5F",
"O. c #606060",
"+. c gray38",
"@. c #626262",
"#. c gray39",
"$. c #646464",
"%. c #656565",
"&. c gray40",
"*. c #676767",
"=. c #686868",
"-. c DimGray",
";. c #6A6A6A",
":. c gray42",
">. c #6C6C6C",
",. c #6D6D6D",
"<. c gray43",
"1. c #6F6F6F",
"2. c gray44",
"3. c #717171",
"4. c #727272",
"5. c gray45",
"6. c #747474",
"7. c gray46",
"8. c #767676",
"9. c #777777",
"0. c gray47",
"q. c #797979",
"w. c gray48",
"e. c #7B7B7B",
"r. c #7C7C7C",
"t. c gray49",
"y. c #7E7E7E",
"u. c gray50",
"i. c #808080",
"p. c #818181",
"a. c gray51",
"s. c #838383",
"d. c #848484",
"f. c gray52",
"g. c #868686",
"h. c gray53",
"j. c #888888",
"k. c #898989",
"l. c gray54",
"z. c #8B8B8B",
"x. c gray55",
"c. c #8D8D8D",
"v. c #8E8E8E",
"b. c gray56",
"n. c #909090",
"m. c gray57",
"M. c #929292",
"N. c #939393",
"B. c gray58",
"V. c #959595",
"C. c gray59",
"Z. c #979797",
"A. c #989898",
"S. c gray60",
"D. c #9A9A9A",
"F. c #9B9B9B",
"G. c gray61",
"H. c #9D9D9D",
"J. c gray62",
"K. c #9F9F9F",
"L. c #A0A0A0",
"P. c gray63",
"I. c #A2A2A2",
"U. c gray64",
"Y. c #A4A4A4",
"T. c #A5A5A5",
"R. c gray65",
"E. c #A7A7A7",
"W. c gray66",
"Q. c #A9A9A9",
"!. c #AAAAAA",
"~. c gray67",
"^. c #ACACAC",
"/. c gray68",
"(. c #AEAEAE",
"). c #AFAFAF",
"_. c gray69",
"`. c #B1B1B1",
"'. c #B2B2B2",
"]. c gray70",
"[. c #B4B4B4",
"{. c gray71",
"}. c #B6B6B6",
"|. c #B7B7B7",
" X c gray72",
".X c #B9B9B9",
"XX c gray73",
"oX c #BBBBBB",
"OX c #BCBCBC",
"+X c gray74",
"@X c gray",
"#X c gray75",
"$X c #C0C0C0",
"%X c #C1C1C1",
"&X c gray76",
"*X c #C3C3C3",
"=X c gray77",
"-X c #C5C5C5",
";X c #C6C6C6",
":X c gray78",
">X c #C8C8C8",
",X c gray79",
"<X c #CACACA",
"1X c #CBCBCB",
"2X c gray80",
"3X c #CDCDCD",
"4X c #CECECE",
"5X c gray81",
"6X c #D0D0D0",
"7X c gray82",
"8X c #D2D2D2",
"9X c LightGray",
"0X c gray83",
"qX c #D5D5D5",
"wX c gray84",
"eX c #D7D7D7",
"rX c #D8D8D8",
"tX c gray85",
"yX c #DADADA",
"uX c gray86",
"iX c gainsboro",
"pX c #DDDDDD",
"aX c gray87",
"sX c #DFDFDF",
"dX c gray88",
"fX c #E1E1E1",
"gX c #E2E2E2",
"hX c gray89",
"jX c #E4E4E4",
"kX c gray90",
"lX c #E6E6E6",
"zX c #E7E7E7",
"xX c gray91",
"cX c #E9E9E9",
"vX c #EAEAEA",
"bX c gray92",
"nX c #ECECEC",
"mX c gray93",
"MX c #EEEEEE",
"NX c #EFEFEF",
"BX c gray94",
"VX c #F1F1F1",
"CX c gray95",
"ZX c #F3F3F3",
"AX c #F4F4F4",
"SX c gray96",
"DX c #F6F6F6",
"FX c gray97",
"GX c #F8F8F8",
"HX c #F9F9F9",
"JX c gray98",
"KX c #FBFBFB",
"LX c gray99",
"PX c #FDFDFD",
"IX c #FEFEFE",
"UX c white",
/* pixels */
"2.2.2.2.2.2.2.2.9.0.0.0.0.0.0.9.2.2.2.2.2.2.2.2.2.2.2.3.0.0.0.9.2.2.2.2.9.0.0.0.i.i.i.u.0.0.0.0.0.0.0.q.i.i.i.i.i.i.i.u.0.0.0.0.",
"2.2.2.2.2.2.2.3.0.0.0.0.0.0.0.9.2.2.2.2.2.2.2.2.2.2.2.3.0.0.0.9.2.2.2.2.9.0.0.0.i.i.i.u.0.0.0.0.0.0.0.q.i.i.i.i.i.i.i.u.0.0.0.0.",
"1.1.1.1.1.1.1.2.9.9.9.9.9.9.9.9.2.1.1.1.2.2.2.2.2.2.1.2.0.0.0.9.2.2.2.2.9.0.0.0.u.i.i.u.0.9.0.0.0.0.0.0.i.i.i.i.i.i.i.u.0.9.9.9.",
"4.4.4.4.5.5.5.5.w.w.w.w.w.w.w.w.5.4.4.4.3.3.3.3.3.3.3.4.0.0.0.0.3.2.2.3.0.0.0.q.i.p.p.i.w.q.q.q.0.0.0.q.i.i.i.i.p.p.p.i.e.w.w.w.",
"k.k.k.l.V.Z.C.C.Z.Z.Z.Z.Z.Z.Z.C.l.k.l.k.i.u.u.u.u.u.u.u.u.u.u.u.0.9.9.0.u.u.u.i.k.l.l.l.l.l.l.k.i.u.u.u.i.i.i.p.l.z.l.z.C.Z.Z.Z.",
"z.z.z.x.A.D.S.S.S.S.S.S.S.S.D.A.x.z.x.z.p.i.i.i.i.i.i.i.i.i.i.u.q.0.0.q.i.i.i.p.l.z.z.z.z.z.z.l.p.i.i.i.i.i.i.p.l.z.z.x.A.D.S.S.",
"z.z.z.x.A.S.S.S.S.S.S.S.S.S.S.A.z.l.z.l.i.u.i.i.i.i.i.i.i.i.i.i.q.0.0.q.i.i.i.p.z.z.z.z.z.z.z.l.p.i.i.i.i.i.i.p.z.z.z.x.A.S.S.S.",
"l.l.k.z.C.Z.Z.Z.Z.Z.Z.Z.A.A.A.Z.x.z.z.l.p.i.p.p.u.u.i.u.u.u.u.u.0.9.9.0.u.i.u.i.k.l.k.k.l.l.l.k.p.i.i.i.i.i.i.p.k.l.k.z.C.Z.Z.Z.",
"q.q.q.q.e.e.e.e.p.a.p.a.z.x.x.x.z.z.z.z.l.l.l.k.w.0.q.0.4.3.3.3.2.2.2.3.0.q.0.0.4.4.4.4.q.q.q.q.u.i.i.i.i.i.i.i.w.q.q.q.e.e.e.e.",
"0.0.0.0.9.9.9.0.u.i.u.i.l.z.z.z.z.z.z.z.z.z.z.l.q.9.0.9.2.2.2.2.2.2.2.3.0.0.0.0.2.1.1.2.9.0.0.0.i.i.i.i.i.i.i.i.0.9.0.0.9.9.9.9.",
"0.0.0.0.0.0.0.0.u.i.i.p.l.z.z.z.z.z.z.z.z.z.z.l.q.9.0.9.1.1.1.1.1.1.1.1.9.9.9.9.2.1.1.2.9.0.9.0.u.i.u.u.i.i.i.i.0.0.0.0.0.0.0.0.",
"0.0.0.q.q.q.q.w.i.p.i.p.z.x.x.x.x.x.x.x.z.z.z.l.r.w.e.w.5.5.5.5.5.5.5.6.w.w.w.w.4.4.4.4.w.e.w.e.p.a.a.a.i.i.i.i.q.0.0.0.q.q.q.q.",
"u.u.u.i.k.l.k.l.l.l.l.z.Z.A.A.A.A.A.A.Z.x.z.z.x.C.Z.Z.Z.C.C.C.C.C.C.C.C.Z.Z.Z.C.l.k.k.l.C.Z.Z.Z.Z.Z.A.V.p.u.i.i.u.u.u.i.k.l.l.l.",
"i.i.i.p.z.z.z.z.z.z.z.x.A.S.S.S.S.S.S.A.x.z.z.x.A.D.S.S.S.S.S.S.S.S.S.S.S.S.D.A.x.z.z.x.A.S.S.S.S.S.D.Z.a.u.i.i.i.i.i.p.l.z.z.z.",
"i.i.i.p.z.z.z.z.z.z.z.x.A.S.S.S.S.S.S.A.x.z.z.x.A.S.S.S.S.S.S.S.S.S.S.S.S.S.S.A.x.z.z.x.A.S.S.S.S.S.D.Z.a.i.i.i.i.i.i.p.l.z.z.z.",
"u.u.u.i.k.l.l.l.l.l.l.z.Z.A.A.A.A.A.A.Z.x.z.z.x.Z.A.A.A.A.A.A.A.S.S.S.S.A.A.A.Z.x.z.z.x.C.Z.Z.Z.Z.Z.Z.V.p.u.i.i.i.i.i.i.l.l.l.l.",
"3.3.3.4.q.w.q.q.q.w.q.e.z.x.x.x.x.x.x.x.z.z.z.z.x.x.x.x.x.x.z.x.A.S.S.A.x.z.x.x.z.z.z.l.a.p.a.p.e.w.w.w.q.0.0.q.u.i.i.i.p.i.i.i.",
"2.2.1.2.9.0.9.0.0.0.9.q.k.z.z.z.z.z.z.z.z.z.z.z.z.z.z.z.z.z.l.x.A.S.S.Z.z.l.z.z.z.z.z.l.i.u.i.u.0.9.9.9.0.0.0.0.u.i.i.i.i.i.i.i.",
"2.2.2.3.0.0.0.0.0.0.9.q.l.z.z.z.z.z.z.z.z.z.z.z.z.z.z.z.z.z.z.x.A.D.D.A.x.z.z.z.z.z.z.l.p.i.i.i.q.0.0.0.0.0.0.q.i.i.i.i.i.i.i.i.",
"2.2.2.2.9.0.0.0.q.q.q.e.l.z.z.z.l.l.l.l.z.z.z.z.z.z.z.z.l.l.l.z.C.Z.Z.C.z.l.l.l.l.l.l.k.i.u.u.u.0.9.0.0.0.0.9.0.u.u.u.u.u.u.u.u.",
"2.2.2.2.0.0.9.q.k.l.l.l.z.z.z.l.p.p.p.p.l.z.z.z.z.z.z.l.p.i.p.i.e.w.w.w.q.q.q.q.q.q.q.q.0.0.0.0.3.2.2.2.2.2.2.2.3.3.3.3.3.3.3.3.",
"2.2.2.3.9.0.9.q.l.z.z.z.z.z.z.l.i.i.u.p.l.z.z.z.z.z.z.l.i.u.i.u.0.9.9.9.9.0.0.0.9.9.9.9.0.0.0.9.2.2.2.2.2.2.2.2.2.2.2.2.2.2.2.2.",
"2.2.2.3.0.0.9.q.l.z.z.z.z.z.z.l.p.i.i.p.z.z.z.z.z.z.z.l.p.i.i.u.0.0.0.0.0.0.0.0.0.0.0.0.0.0.0.9.2.1.2.2.1.1.1.1.1.1.1.1.2.2.2.2.",
"2.2.2.2.9.0.9.q.k.l.l.l.l.l.l.k.i.i.i.p.l.l.l.l.l.l.l.l.p.i.i.u.q.0.0.0.0.0.0.0.9.9.9.0.9.9.0.9.4.3.3.3.4.4.4.4.4.4.4.4.2.2.2.2.",
"2.2.2.2.2.2.2.3.q.q.q.q.q.q.q.w.i.i.i.i.p.p.p.p.p.p.p.p.i.i.i.i.u.u.i.u.0.0.0.9.3.2.3.2.2.3.2.3.y.u.u.i.k.l.k.k.k.k.l.j.q.9.0.9.",
"2.2.2.2.2.2.2.3.9.0.0.0.0.0.0.0.i.i.i.i.i.i.i.i.i.i.i.i.i.i.i.i.i.i.i.i.q.0.0.0.2.2.2.2.2.2.2.3.i.p.i.p.z.x.z.z.z.z.x.l.w.0.0.0.",
"1.1.1.1.1.1.1.2.9.9.9.9.9.9.9.0.u.i.i.i.i.i.i.i.i.i.i.i.i.i.i.i.i.i.i.u.0.9.9.9.2.1.2.1.1.1.1.2.u.i.u.i.l.z.l.l.z.z.z.l.q.9.0.9.",
"5.5.5.5.5.5.5.5.w.w.w.w.w.w.w.e.i.p.p.p.a.a.a.p.i.i.i.i.u.u.u.u.p.p.p.i.e.w.w.w.4.4.4.4.5.5.4.6.p.a.p.a.z.x.x.x.z.z.z.l.e.q.q.q.",
"C.C.C.C.C.C.C.C.Z.Z.Z.Z.Z.Z.Z.C.z.l.l.z.C.Z.Z.C.p.u.i.u.0.0.0.w.k.z.l.z.C.Z.Z.C.l.k.k.l.V.C.C.C.Z.Z.Z.Z.A.A.A.Z.x.z.z.z.l.l.l.l.",
"S.S.S.S.S.S.S.S.S.S.S.S.S.S.S.A.x.z.z.x.A.S.D.A.a.u.i.u.0.0.0.q.l.z.z.x.A.S.S.A.x.z.z.x.A.D.S.S.S.S.S.S.S.S.S.A.x.z.z.z.z.z.z.z.",
"S.S.S.S.S.S.S.S.S.S.S.S.S.S.S.A.x.z.z.x.A.S.D.A.p.u.i.u.0.0.9.q.l.z.l.x.A.S.S.A.x.z.z.x.A.S.S.S.S.S.S.S.S.S.D.A.x.z.z.z.z.z.z.z.",
"A.A.A.A.A.A.A.A.Z.Z.Z.Z.Z.Z.Z.C.z.l.l.z.C.Z.Z.V.a.i.p.i.w.q.q.e.l.z.z.x.Z.A.A.Z.x.z.z.x.Z.A.A.A.Z.Z.Z.Z.C.C.C.V.z.l.l.l.l.l.l.l.",
"x.x.x.x.x.z.x.z.a.p.a.p.e.w.w.w.w.w.w.w.w.w.w.e.k.l.l.l.l.l.l.l.z.z.z.z.x.x.x.x.z.z.z.z.x.z.x.z.r.w.w.w.5.5.5.6.i.p.i.p.p.p.p.p.",
"l.z.z.z.z.l.z.l.i.u.i.u.0.9.9.9.0.0.0.0.9.0.9.0.l.z.z.z.z.z.z.z.z.z.z.z.z.z.z.z.z.z.z.z.z.l.z.l.q.9.9.9.2.1.1.2.u.i.u.i.i.i.i.i.",
"z.z.z.z.z.z.z.z.p.i.i.i.q.0.0.0.0.0.0.0.0.0.9.q.l.z.z.z.z.z.z.z.z.z.z.z.z.z.z.z.z.z.z.z.z.z.x.l.w.0.0.0.3.2.2.3.u.p.i.i.i.i.i.i.",
"l.l.l.k.l.l.l.k.p.i.i.u.0.0.0.0.0.0.0.0.q.w.q.e.l.z.z.z.l.l.l.l.l.l.l.l.l.l.l.l.l.l.l.l.k.k.l.j.q.9.0.9.2.2.2.3.y.u.u.u.u.u.u.u.",
"4.4.4.4.q.q.q.w.i.i.i.u.0.0.0.0.u.u.u.i.k.l.l.l.z.z.z.l.p.i.p.p.p.p.p.p.p.p.p.i.w.q.q.q.4.4.4.4.2.2.2.2.2.2.2.2.3.3.3.3.3.3.3.3.",
"2.2.1.2.9.0.0.0.i.i.i.i.q.0.0.q.i.p.i.p.z.z.z.z.z.z.z.l.p.u.i.i.i.i.i.i.i.i.i.u.0.9.0.9.2.1.1.1.2.2.2.2.2.2.2.2.2.2.2.2.2.2.2.2.",
"2.2.1.2.9.0.9.0.u.u.u.u.0.9.9.0.u.i.u.i.l.z.z.z.z.l.z.l.p.i.i.i.i.i.i.i.i.i.i.u.0.0.0.9.2.2.2.2.1.1.1.1.1.1.1.1.2.2.2.2.2.2.2.2.",
"4.4.4.5.w.e.e.e.p.a.a.p.e.e.e.e.p.a.p.a.l.z.z.z.x.x.x.z.p.i.p.p.p.p.p.p.p.i.p.i.q.0.q.0.3.2.2.3.4.4.4.4.4.4.4.4.2.2.2.2.3.3.3.3.",
"l.l.k.l.C.Z.C.Z.Z.Z.Z.Z.Z.Z.Z.Z.Z.Z.A.C.x.z.z.x.Z.A.A.Z.z.l.l.l.l.l.l.l.l.l.l.k.i.u.i.u.0.9.9.q.j.l.k.l.l.k.l.j.q.9.9.0.y.u.u.u.",
"z.z.z.x.A.D.S.S.S.S.S.S.S.S.S.S.S.S.S.A.x.z.z.x.A.S.S.A.x.z.z.z.z.z.z.z.z.z.z.l.p.i.i.u.0.0.0.q.l.z.z.z.z.z.x.l.q.0.0.0.i.i.i.i.",
"z.z.z.x.A.S.S.S.S.S.S.S.S.S.S.S.S.S.D.A.x.z.z.x.A.S.S.A.x.z.z.z.z.z.z.z.z.z.z.z.p.i.i.i.0.0.0.q.l.z.z.z.z.z.z.l.q.9.0.0.u.i.i.i.",
"l.l.l.z.Z.A.A.A.A.A.A.A.Z.Z.Z.Z.Z.Z.Z.C.x.z.z.x.Z.A.A.Z.x.z.z.z.l.l.l.l.l.l.l.k.i.u.u.u.0.9.9.q.k.l.l.l.l.l.z.k.w.0.0.q.u.i.i.i.",
"p.p.p.p.z.x.x.x.x.x.x.z.a.p.a.p.e.w.w.e.l.z.z.z.x.x.x.x.z.z.z.l.p.p.p.i.w.q.w.q.4.3.3.3.2.2.2.3.q.w.q.w.i.p.p.p.u.u.u.u.i.i.i.i.",
"i.i.u.p.l.z.z.z.z.z.z.l.i.u.i.u.0.9.9.q.l.z.z.z.z.z.z.z.z.z.z.l.i.i.i.u.0.9.0.9.2.1.2.2.2.2.2.2.9.0.9.0.u.i.i.i.i.i.i.i.i.i.i.i.",
"i.i.i.p.z.z.z.z.z.z.z.l.p.i.i.u.q.0.0.w.l.x.z.z.z.z.z.z.z.z.z.l.p.i.i.i.0.0.0.9.2.2.2.2.2.2.2.2.9.0.0.0.i.i.i.i.i.i.i.i.i.i.i.i.",
"i.i.u.i.k.l.l.l.z.z.z.l.p.i.p.i.0.9.9.q.k.l.k.l.l.l.l.l.l.l.l.k.p.i.i.u.q.0.q.0.3.2.3.2.2.2.2.3.0.q.0.q.u.i.i.i.i.i.i.i.u.i.i.i.",
"0.0.0.0.q.w.q.e.l.z.z.z.l.l.z.k.4.2.2.2.4.4.4.4.q.w.q.w.w.w.q.w.i.i.i.i.u.u.i.u.0.9.9.9.9.9.9.0.u.i.u.i.i.i.i.i.i.i.i.u.q.0.0.0.",
"0.0.0.0.0.0.9.q.l.z.z.z.z.z.z.l.4.1.2.2.1.1.1.2.9.0.9.9.0.0.9.0.i.i.i.i.i.i.i.i.q.0.0.0.0.0.0.q.i.i.i.i.i.i.i.i.i.i.i.u.0.0.0.0.",
"0.0.0.0.0.0.9.q.l.x.z.z.z.z.z.l.4.1.2.2.2.2.2.3.0.0.0.0.0.0.0.0.u.i.i.i.i.i.i.u.0.9.0.0.9.0.9.0.u.i.i.i.i.i.i.i.i.i.i.u.0.9.0.0.",
"0.0.0.0.0.0.0.w.k.l.l.l.l.l.l.j.4.1.2.2.2.2.2.2.9.0.0.9.0.0.0.0.i.p.p.p.p.p.p.i.w.q.q.q.q.q.q.w.i.p.p.p.p.p.p.p.p.p.p.i.w.q.q.q.",
"u.u.u.u.u.u.u.u.w.q.q.q.q.q.q.q.2.2.2.2.2.2.2.2.2.2.2.3.9.0.0.q.k.l.l.l.l.l.l.l.l.l.l.l.l.l.l.l.l.l.l.l.l.l.l.l.l.l.l.l.l.l.l.l.",
"i.i.i.i.i.i.i.i.0.9.0.0.0.9.0.9.2.2.2.2.2.2.2.2.2.2.2.2.0.0.0.q.l.z.z.z.z.z.z.z.z.z.z.z.z.z.z.z.z.z.z.z.z.z.z.z.z.z.z.z.z.z.z.z.",
"u.u.u.u.u.u.u.u.0.9.0.0.0.0.0.9.2.2.2.2.2.2.2.2.2.2.1.2.9.0.9.q.k.z.l.z.z.z.z.z.z.z.z.z.l.l.z.l.z.z.z.z.z.z.z.z.z.z.z.z.z.z.l.l.",
"a.a.p.a.p.p.a.p.w.q.q.q.0.0.0.9.3.2.2.2.2.2.2.2.3.3.3.4.q.q.q.w.z.x.x.x.z.z.z.z.z.z.z.z.x.x.x.x.x.x.x.x.x.x.x.x.z.z.z.z.x.x.x.x.",
"Z.Z.Z.Z.Z.Z.Z.C.z.k.l.k.q.0.0.0.0.9.9.9.9.9.9.0.y.u.u.i.k.l.k.z.Z.A.A.Z.x.z.z.z.z.z.z.x.Z.A.A.A.A.A.A.A.A.A.A.Z.x.z.z.x.Z.A.A.A.",
"S.S.S.S.S.S.D.A.x.z.x.l.w.0.0.0.0.0.0.0.0.0.0.q.i.p.i.p.z.x.z.x.A.S.S.A.x.z.z.z.z.z.z.x.A.S.S.S.S.S.S.S.S.S.S.A.x.z.z.x.A.S.S.S.",
"S.S.S.S.S.S.S.A.x.z.z.l.q.9.0.0.0.0.0.0.0.0.9.0.u.i.u.i.l.z.l.x.A.S.S.A.x.z.z.z.z.z.z.x.A.S.S.S.S.S.S.S.S.S.D.A.x.z.z.x.A.S.S.S.",
"S.S.S.S.A.A.A.Z.z.k.l.k.w.0.0.0.0.0.0.0.0.0.0.q.i.p.i.p.l.z.z.x.Z.A.A.Z.x.z.z.z.l.l.l.z.C.Z.Z.Z.Z.Z.Z.Z.Z.Z.Z.C.x.z.z.x.Z.A.A.A.",
"S.S.S.A.c.z.x.z.e.q.q.w.u.u.u.u.0.0.0.0.u.i.u.i.l.l.l.l.z.z.z.z.x.x.x.x.z.z.z.l.a.p.p.p.a.a.a.p.e.w.w.w.w.w.w.e.l.z.z.z.x.x.x.x.",
"S.S.S.A.z.l.z.l.q.9.0.0.u.i.i.i.0.0.0.q.i.i.i.p.z.z.z.z.z.z.z.z.z.z.z.z.z.z.z.l.p.u.i.i.u.u.i.u.0.9.9.9.9.9.9.0.l.z.z.z.z.z.z.z.",
"S.S.S.A.x.z.z.l.q.0.0.0.u.i.i.u.0.0.0.q.u.i.i.p.l.z.z.z.z.z.z.z.z.z.z.z.z.z.z.l.p.i.i.i.i.i.i.i.0.0.0.0.0.0.0.q.l.z.z.z.z.z.z.z.",
"S.S.S.A.x.l.z.l.q.0.0.0.u.i.i.u.0.0.0.q.i.i.i.p.l.z.z.z.z.z.z.z.z.z.z.z.z.z.z.l.p.i.i.i.i.i.i.u.0.0.0.0.0.0.9.q.l.z.z.z.z.z.z.z."
};
