/* XPM */
static char *result[] = {
/* columns rows colors chars-per-pixel */
"64 64 252 2 ",
"   c #634F28",
".  c #644F28",
"X  c #644F29",
"o  c #645029",
"O  c #655029",
"+  c #655129",
"@  c #665129",
"#  c #64502A",
"$  c #65502B",
"%  c #66512A",
"&  c #66512B",
"*  c #67522A",
"=  c #67522B",
"-  c #67512C",
";  c #68532C",
":  c #69542D",
">  c #6B542D",
",  c #6B552E",
"<  c #6C552E",
"1  c #6D562F",
"2  c #6E5630",
"3  c #6E5730",
"4  c #6F5730",
"5  c #6F5732",
"6  c #6F5733",
"7  c #6F5831",
"8  c #6F5833",
"9  c #6F5933",
"0  c #705732",
"q  c #715832",
"w  c #705933",
"e  c #715A34",
"r  c #795F34",
"t  c #795E35",
"y  c #7A5F34",
"u  c #7A5F36",
"i  c #7B6035",
"p  c #7B6135",
"a  c #7B6036",
"s  c #7B6136",
"d  c #7B6037",
"f  c #7C6135",
"g  c #7C6136",
"h  c #7D6136",
"j  c #7D6236",
"k  c #7C6237",
"l  c #7D6237",
"z  c #7E6236",
"x  c #7E6237",
"c  c #7F6337",
"v  c #7E6338",
"b  c #7F6338",
"n  c #806437",
"m  c #806439",
"M  c #816539",
"N  c #826639",
"B  c #81653B",
"V  c #81663B",
"C  c #83663A",
"Z  c #82663B",
"A  c #84673A",
"S  c #82663C",
"D  c #83663C",
"F  c #82673C",
"G  c #83673C",
"H  c #83663D",
"J  c #83673D",
"K  c #84673C",
"L  c #85693E",
"P  c #91713E",
"I  c #92713F",
"U  c #93723F",
"Y  c #94733F",
"T  c #937240",
"R  c #937340",
"E  c #947240",
"W  c #947340",
"Q  c #957340",
"!  c #947341",
"~  c #957341",
"^  c #947441",
"/  c #957441",
"(  c #967441",
")  c #967541",
"_  c #947442",
"`  c #967542",
"'  c #977542",
"]  c #967543",
"[  c #977642",
"{  c #977643",
"}  c #957544",
"|  c #977644",
" . c #977645",
".. c #987642",
"X. c #987643",
"o. c #997643",
"O. c #987743",
"+. c #987744",
"@. c #987845",
"#. c #997845",
"$. c #9A7845",
"%. c #A27F4C",
"&. c #A2804C",
"*. c #A3804C",
"=. c #A3814C",
"-. c #A3824C",
";. c #A4814C",
":. c #A5814C",
">. c #A4814D",
",. c #A4824C",
"<. c #A5824C",
"1. c #A4824D",
"2. c #A5824D",
"3. c #A4834D",
"4. c #A5834D",
"5. c #A6834C",
"6. c #A6834D",
"7. c #A5834E",
"8. c #A7824E",
"9. c #A7844D",
"0. c #A6844E",
"q. c #A7844E",
"w. c #A7854E",
"e. c #A6844F",
"r. c #A7854F",
"t. c #A8844E",
"y. c #A8854F",
"u. c #A8864F",
"i. c #AF894F",
"p. c #B0894E",
"a. c #B18A4E",
"s. c #B08A4F",
"d. c #B18A4F",
"f. c #B28A4E",
"g. c #B38B4E",
"h. c #B28A4F",
"j. c #B28B4F",
"k. c #B38C4F",
"l. c #B48C4D",
"z. c #B48C4E",
"x. c #B58C4E",
"c. c #B48D4E",
"v. c #B58D4E",
"b. c #B48C4F",
"n. c #B58C4F",
"m. c #B58D4F",
"M. c #B68D4F",
"N. c #B68E4F",
"B. c #A78450",
"V. c #A98550",
"C. c #A98650",
"Z. c #B18B50",
"A. c #B38C50",
"S. c #B28C51",
"D. c #B38D51",
"F. c #B48C50",
"G. c #B48D50",
"H. c #B58D50",
"J. c #B48D51",
"K. c #B58D51",
"L. c #B68D50",
"P. c #B68D51",
"I. c #B58E50",
"U. c #B58E51",
"Y. c #B68E50",
"T. c #B78E50",
"R. c #B68E51",
"E. c #B58D52",
"W. c #B58E52",
"Q. c #B68E52",
"!. c #B68F52",
"~. c #B68E53",
"^. c #B28F5B",
"/. c #B2905B",
"(. c #B3915C",
"). c #B3915D",
"_. c #B3925D",
"`. c #B3925E",
"'. c #B4925C",
"]. c #B5925C",
"[. c #B4925D",
"{. c #B5925D",
"}. c #B4935D",
"|. c #B5935D",
" X c #B6935C",
".X c #B6935D",
"XX c #B7935D",
"oX c #B4925E",
"OX c #B4935E",
"+X c #B5945D",
"@X c #B6945D",
"#X c #B7945D",
"$X c #B7955D",
"%X c #B6945E",
"&X c #B7945E",
"*X c #B7955E",
"=X c #B7945F",
"-X c #B7955F",
";X c #B7965E",
":X c #B7965F",
">X c #B9935D",
",X c #B8945D",
"<X c #B9945D",
"1X c #B8955D",
"2X c #B8945E",
"3X c #B8955E",
"4X c #B8955F",
"5X c #B8965E",
"6X c #B8965F",
"7X c #B9965F",
"8X c #B9975F",
"9X c #B79660",
"0X c #B89560",
"qX c #B89660",
"wX c #B99660",
"eX c #B89760",
"rX c #B99760",
"tX c #B89661",
"yX c #BA9760",
"uX c #BA9661",
"iX c #B99865",
"pX c #BB9A66",
"aX c #BC9B67",
"sX c #BC9C67",
"dX c #BF9D67",
"fX c #BB9B68",
"gX c #BB9B69",
"hX c #BC9B68",
"jX c #BC9B69",
"kX c #BD9B69",
"lX c #BD9D68",
"zX c #BC9C69",
"xX c #BD9C69",
"cX c #BD9D69",
"vX c #BE9D68",
"bX c #BE9D69",
"nX c #BE9E69",
"mX c #BF9E69",
"MX c #BF9F69",
"NX c #BE9D6A",
"BX c #BF9E6A",
"VX c #BF9F6A",
"CX c #BF9F6B",
"ZX c #C09E69",
"AX c #C09F6A",
"SX c #C09F6B",
"DX c #C19F6B",
"FX c #C0A06B",
"GX c #C1A06B",
"HX c #C0A06C",
"JX c #C1A06C",
"KX c #C2A16C",
/* pixels */
"m.m.m.m.m.m.m.I.*X6X6X6X6X6X6X6X6X6X6XqXBXSXSXSXSXSXSXSXSXSXSXBXqX6X6X:XmXSXSXSXSXSXSXVXqX6X6X6X6X6X6X6X6X6X6X6X6X6XrX+X| W / / ",
"m.m.m.m.m.m.m.I.*X6X6X6X6X6X6X6X6X6X*X6XBXSXVXSXSXSXSXSXSXSXSXBXqX6X6X:XmXSXSXSXSXSXSXBXqX6X6X6X6X6X6X6X6X6X6X6X6X-X7X|. .W ) / ",
"v.v.v.v.v.m.v.H.*XqX6X6X6X6X6X6XrXrX8XrXSXJXHXHXSXSXSXSXSXSXSXBXqX6X6X:XBXDXSXSXSXSXHXCXqX6X6X6X6X6X6X6X6X6X6X6X6X6XrX+X| T / ~ ",
"U.U.U.U.U.U.U.W.XX&X&X&X&X&X&X#X.X.X.X.XlXbXvXvXmXmXmXmXBXBXVXbXwX6X6X:XnXVXBXBXZXmXmXvX4X&X&X#X3X6X6X6X6X6X6X6X*X%X*X'.@./ ] ] ",
"*X*X*X*X*X*X*X,XW.H.H.H.H.H.Y.A.$.' X.+.e.r.e.C.W.Q.R.!.4XeXqXqX4X6X6X6XqXqXeX6X!.R.Q.Q.H.H.H.Q.1X6X6X6X6X6X6X&Xy.0.q.0.,.-.,.,.",
"6X6X6X6X6X6X6X3XU.x.m.m.m.v.M.g.' R W ( ;.4.,.5.z.v.z.H.2X6X3X6X6X6X6X6X6X5X6X*XU.z.v.v.m.m.v.I.3X6X6X6X6X6XqX&X0.,.4.4.4.4.4.4.",
"6X6X6X6X6X6X6X3XU.v.m.m.m.c.I.g.X.R ! ( ,.4.,.9.b.m.v.K.2XqX6X6X6X6X6X6X6X6XqX4XU.x.m.m.m.m.x.H.#X6X3X6X6X3X6X@X0.,.<.<.4.4.4.4.",
"6X6X6X6X6X6X6X&XW.H.I.I.I.H.Y.A.$.{ X.+.6.r.0.t.J.Y.H.W.2X4X2X2X2X2X2X2X2X2X2X2X!.R.Q.Q.Q.Q.Q.!.4XwXwXwXwXqXwX=XC.t.y.t.<.:.<.<.",
"6X6X6X6X6X6X6X6X*X*X3X3X3X3X3X*X|..X.X.X&X&X&X&X2X3X3X,XW.U.U.U.U.U.U.U.U.U.H.!.dXZXmXZXZXZXmXZXZXBXBXBXBXBXBXBXbXbXBXaX$./ [ ) ",
"6X6X6X6X6X6X6X6X6X6X6X6X6X6X6X6X6X6X6X6X6X6X6X6X:X:X6X2XH.z.z.z.z.z.z.z.z.z.z.U.nXSXCXCXSXSXSXCXCXCXCXCXCXCXCXCXSXSXJXxX+.U / W ",
"rXrXrXrXrXrXrX8X8X8X8X8X8X7X8X7X6X6X6X6X8X8X8X8X8X8XrX7XT.N.Y.Y.N.N.N.N.N.Y.M.!.AXKXGXJXGXGXGXGXJXJXJXJXJXJXJXJXJXDXKXNX$.Q ' ) ",
".X.X.X.X.X.X.X.X{.[.[.[..X.X.X.X.X.X.X|.[.[.[.oX_._._.(.d.p.a.a.a.f.f.f.f.h.f.S.pXjXgXhXzXzXzXzXfXfXfXfXfXfXfXfXfXfXzXiX} P T T ",
"{ { { { { { O.] K Z Z K ] X.{ { { { +.] K Z G V 9 3 7 3 2 2 1 4 m N M N N M N m e 9 9 e F J J S e 9 w 9 9 9 9 9 9 9 9 9 > > > > ",
"/ / / / / / / R x s g x T / / / / / / R b g l g ; % & & + % + - d l g k k k l s & O + - a g k a - O % @ @ @ @ @ O O O + = = = = ",
"W W W W W W W I x s g z I W W W W W W I x y f y %   . . % % + - u f i i i i f y $ X o & y f g u - o + O O O O O + + + + # o o o ",
"| | | o.#.@.#. .C m m C  .#.@.#.#.@.#.| L G K F e w e w < , , 1 B F F F F F F V w 7 7 e V F F B 7 3 7 4 4 4 4 3 1 2 2 1 4 4 4 4 ",
"|.|.|.%XsXcXbXpX7.&.&.6.aXcXxXlXxXlXlXxXzXzXzXzXfXfXzXiX] P I / /.oX`.`.`.`.`.`.).).).).`._._.'.Z.s.d.d.d.d.d.i.*.&.%.>.i.d.d.d.",
"wXwX7XrXAXJXJXmXV.4.4.u.MXJXJXJXJXJXJXJXJXJXJXJXJXJXKXmX#.Q ( O.%XyXwXrXrXrXrXrXrXrXrXrXrXrXrX6XT.N.T.Y.T.Y.T.H.t.0.0.w.H.T.Y.Y.",
"6X6X*X6XBXSXSXvXB.,.,.r.nXSXSXSXSXSXSXSXSXCXSXSXCXBXFXxX+.U ^ { |.6X6X6X:X:X:X:X:X:X:X:X:X-X:X%XG.z.b.z.z.z.x.k.5.,.,.4.k.z.z.z.",
"6X6X6XwXmXBXAXvXV.0.0.C.vXmXmXmXbXbXbXbXmXmXmXmXbXbXmXaX+.Y / { '.*X&X*X3X3X3X3X3X3X3X3X6X6X6X-XW.H.I.H.I.H.I.J.y.0.0.w.J.U.H.H.",
"6X6X6X6XwXqXwXqX&X%X%X#X~.U.!.W.C.r.r.u.~.~.W.J.u.r.u.q.' ^ / ` 6.w.0.y.J.R.P.P.P.P.P.~.3X6X6X6X,X>X,X,X,X,X>X2X&X&X&X&X*X,X,X,X",
"6X6X6X6X6X6X6X6X6X6X6X3XK.v.m.b.6.,.,.5.z.x.m.b.4.,.4.;.( ^ / ) ,.4.1.0.A.m.v.v.v.m.v.P.3X6X6X6X4X0X0X0X0X0X0X6X6X6X6X6X6X0X0X0X",
"6X6X6X6X6X6X6X6X6X6X6X4XE.n.m.b.6.1.1.0.b.n.m.b.6.1.4.;.( ^ / ` ;.4.,.5.F.m.n.m.m.m.x.P.3X6X6X6X6X6X6X6XqX6X6X6X6X6X6X6X6X6X6X6X",
"6X6X6X6X6X6X6X6X*X,X#X,X~.U.W.J.y.0.0.w.J.Q.W.G.w.0.w.6.' ^ / ` 7.w.0.y.J.W.W.W.W.W.U.W.#X#X#X#X#X#X#X,XXX*X&X&X6X6X6X6X6X6X6X6X",
"6X6X6X6X6X6X6X*XW.m.H.U.#X;X*X3X&X*X*X*X*X3X3X3X*X&X*X].o.W / { '.3X*X*X3X*X*X*X*X*X5X,XE.m.H.H.H.H.L.D.t.0.0.y.*X6X6X6X6X6X6X6X",
"6X6X-X6X-X-X4X*XK.z.z.G.@X:X6X6X6X6X6X6X6X6X6X6X6X6XeX.Xo.W ~ { .XrX6X6X6X6X6X6X6X6X6X2XK.z.c.c.c.c.v.k.6.1.,.0.%X6X6X6X6X6X6X6X",
"rXrXrXrXrXrXrX6X!.M.N.R.5XrXrXrXrXrXrXrXrXrXrXrXrX6XrX&Xo.^ / O.%XrX6X7X7X7X7X7X7X7X7X7XQ.N.Y.Y.Y.Y.Y.G.9.4.4.w.*XrX6X7XrXrXrXrX",
").).).).).).).(.j.j.j.Z.(.).(.).'.'.'.'.'.'.'.'.'.'.|./.] T T ] (..X|..X.X.X.X.X.X.X.X].j.h.j.j.j.j.j.s.<.2.;.6.]..X.X.X}.oX[.[.",
"9 9 9 9 9 w 8 w M C C M w 8 8 w B A C C C C C C C C C F b c c M ' O.O.O.O.O.O.O.O.O.+.] A N N N N N N A _ ` ` ` X.O.O.] K Z G D ",
"o o o o o o   O u g s y & o . O y g i p i p p s s s s g l l k c U W W W W W W W W W ! I l a g s s g a j T / ^ / W W Q T l i i i ",
"& & & & = = % ; s l l s ; & % = d l g k k k k k g g g g p f i j E / / / / / / / / ^ / T x g g g g g g z T / W W / ! / T m l v l ",
"2 2 2 1 < 1 < 2 m m m b 4 2 2 4 m C N N N N N N G K J J J K J L ] X.{ { { { { { { { X.] G V F Z Z Z V A ' X.| | | | X.] M v b v ",
"s.s.d.i.>.%.*.*.*.=.*.>.i.d.s.d.a.j.j.j.j.j.j.S.aXxXkXkXkXkXkXhX%X|..X|.|.|..X|..X|..X@XOXOXOXOXOXOXOXOX.X|..X.X.X|.%X(.] I W R ",
"N.N.N.G.w.0.0.0.0.0.6.q.J.N.N.N.N.N.N.N.N.Y.M.!.ZXJXDXGXGXSXJXAXrX6X6X6X6X7X7X7X7X7X7X7X7X8X7X7X8X8X8X8X6X6X6X6X6X6XrX+X+.W ) / ",
"z.z.v.k.4.,.,.,.,.,.,.6.A.v.z.z.v.c.z.v.x.m.l.W.BXSXSXSXSXSXHXSXrX6X6X6X6X6X6X6X6X6X6X6X6X6X6X6X6X6X6X6X6X6X6X6X6X6XrX+X .W / / ",
"P.P.Y.J.y.0.0.0.0.0.0.r.J.P.K.P.P.K.P.P.P.P.H.W.vXmXmXmXbXbXbXvX*X*X*X&X*X4X3X4X4X4X3X*X*X*X&X%X3X1X3X*X&X*X*X*X*X%X*X'. .W / / ",
"<X<X,X&X&X*X&X&X*X&X%X%X2X3X3X3X3X3X3X3X3X3X3XXXW.U.W.W.V.q.y.r.0.q.0.w.D.P.P.P.P.P.P.J.y.0.0.r.J.P.P.J.y.0.q.0.0.0.r.7.] W / / ",
"6X6X6X6X6X6X6X6X6X6X6X6X6X6X6X6X6X6X6X6X6X6X6X1Xm.z.m.b.8.,.<.,.3.4.,.6.b.v.m.m.m.m.v.F.6.3.1.6.b.m.m.F.6.,.4.4.4.1.4.-.] Q / / ",
"6X6X6X6X6X6X6X6X6X6X6X6X6X6X6X6X6X6X6X6X6X6X6X#Xm.x.m.b.9.3.4.4.4.4.,.0.b.m.m.m.m.m.m.F.6.3.1.6.b.m.m.F.9.1.4.4.4.4.4.-./ W / ^ ",
"eXeXeXqX6X6X6X6XqXeXqXeXeXqXqXeXeXeXeXeXqXqXqX3X!.U.!.E.V.0.0.0.0.0.0.r.J.H.H.H.H.H.L.K.y.0.0.r.J.L.L.J.t.0.0.0.0.0.q.7.X.' ' ' ",
"VXBXVXnXqX6X6XwXmXVXBXBXBXBXBXBXBXBXBXBXBXBXBXBXmXmXMXmX2X@X*X*X*X&X*X&X&X,X,X,X,X,X,X#X&X*X&X&X#X,X,X,XXX*X&X&X&X&X*X|.8.:.2.:.",
"CXCXSXnX9X-X-XqXZXSXCXSXSXSXSXSXSXSXSXSXSXSXSXSXSXCXSXBXtX6X6X6X6X6X6X6X6X6X6X6X6X6X6X6X6X6X6X6X6X:X:X4XqX6X6X6X6X6XqX*Xq.1.4.4.",
"JXJXKXAXrX7X8XyXDXJXJXJXJXJXJXJXJXJXJXJXGXGXGXGXJXJXJXDXuX7XwX7X7X7X7X7X8X7X7X8X8X8X8X8X6X6X6XqXwX7X7X7X7X7X7X7X7X6X8X*Xw.5.9.0.",
"jXjXjXpX_.(.(.`.hXjXgXjXgXgXgXgXgXgXgXgXsXsXsXsXhXjXjXaX|._.oX[.[.[.[.[.|..X@X@X@X@X@X@X@X@X.X{.oXoXoX{.{.{.{.[.).(._./.=.%.&.&.",
"w w w w 7 7 7 7 w w w w w w w w w w w e Z K K C e w 9 e B F V Z Z Z V K ] O.{ X.X.X.X.X.X.{ O.] K V S Z Z Z G B w 7 7 7 1 1 1 1 ",
"+ @ @ @ % % % % @ @ @ @ @ @ @ @ @ @ + * i h g y = + + = i g g g k l g b E / / / / Q / / W W / I v g h g g g j i = + % % = = = = ",
"# # # O + + + + # # # # # # # # # O X % y g g y & X X & d l g l i i y j I Y Y W ! W W ! / / ) R l u g g g a g y & X O o X X X X ",
"5 5 6 7 1 1 1 1 5 5 5 5 5 5 5 5 5 5 5 w V H G V w 5 5 q v n c n G K J L  .#.@.@...X.X.[ / / / E A N C C D S J V w 5 6 6 6 6 6 6 ",
"_._.[./.=.&.&.=./._._._._._._._._._._._.[.[.[.[._._.}.^.' I T | pXxXhXhXxXxXcXaXD.j.k.a.[ ^ ! ' p.j.f.Z.'.}.[.[._._._._._._._._.",
"yXrXyX5Xy.0.0.y.5XyXrXyXyXyXyXyXrXrXrXrXrXrXrXrXrXrXyX&Xo.^ / +.nXKXJXJXJXGXJXAX!.v.Y.b.X./ ! X.b.T.N.W.7XrXrXrXrXrXrXrXyXyXyXyX",
":X-X6X%X7.,.1.7.@X6X*X-X-X-X-X-X6X6X6X6X6X6X6X6X:X-XqX{.o.W W +.xXHXCXSXSXCXSXmXW.l.m.g.' W R ' j.m.z.G.*X6X6X6X6X6X6X:X:X-X-X:X",
"*X&X*X Xw.6.6.t.#X6X6X6X6X6X6X6X*X*X*X*X*X*X*X*X*X&X;X].X.W W +.aXBXbXbXBXBXBXdXW.G.W.A.$.{ ' $.A.Q.K.W.#X*X*X*X*X*X*X%X$X$X$X$X",
"J.H.I.H.b.b.b.G.$X6X6X6X6X6X6X&Xu.0.q.0.0.q.0.y.J.U.U.A...W / ` e.u.r.C.-XrXwX6X$X1X3X&X.X|..X|.*X2X3X#Xy.0.q.q.q.q.0.y.J.I.H.H.",
"m.m.m.m.m.m.m.I.*X6X6X6X6X6X6X*X0.,.4.4.4.4.1.9.b.m.M.g.X.W / ` ;.4.,.0.&X6X6X6X6X6X6X6X8XrXrX8X6X6XqX*Xw.,.4.4.4.4.1.6.F.m.m.m.",
"v.v.v.v.v.v.x.H.*X6X6X6X6X6X6X*X0.,.4.4.,.4.,.5.z.v.m.g...R ~ ( ;.4.,.0.%X6X6X6X6X6X6X6X6X6X6X6X6X6X6X*Xq.,.4.2.4.4.1.4.k.m.v.v.",
"R.U.R.U.R.U.K.W.*X6X6X6X6X6X6X&Xu.0.w.q.0.w.0.y.J.U.R.A.o./ ) { 0.y.q.C.4XrX7XwX6X6X6X6X6X6X6X6X6X6X6X*Xu.0.q.0.0.q.0.y.J.Q.K.U.",
"2X2X2X2X2X2X2X&X6X6X6X6X6X6X6X6X*X*X*X*X*X*X*X*X*X&X3X@X6.;.:.e.sXnXvXnXMXMXMXmXqX6X6X6X6X6X6X6X6X6X6X6X*X*X*X*X*X*X*X$X$X*X-X=X",
":X6X:X:X-X-X:X-X-X-X:X:X:X:X-X:X6X6X6X6X6X6X6X6X6X:X6X%Xq.4.2.r.nXFXSXSXCXCXSXBX6X-X6X6X6X6X6X6X-X:X:X:X6X6X6X6X6X6X6X6X:X-X-X:X",
"rXrXrXrXrXrXrXrXrXrXrXrXrXrXrXrXrXrXrXrXrXrXrXrXrX7XrX*Xr.4.4.y.nXJXSXGXJXJXJXAXyX8XrXrXrXrXrXrXrXrXrXrX8XrXrXrXrXrXrXrXrXrXrXrX",
"[.[.[.[.[.[.[.[.[.[.[.[.[.[.[._.}.}.}.}.}.}.}.}.+X+X%X'.7.-.=.0.pXcXxXxXhXjXkXhX|.[.}.}.}.}.}.}._.[._._.{.}.}.[.[._.[._._.[.[._.",
"0 0 0 0 0 0 0 0 0 0 0 0 0 0 0 q B J S F F J S A ] +.| { ` ` ` ` +.@.#. .L K L K G D G G G S G B w 5 5 w V G G V w 5 7 5 5 5 5 5 ",
". . . . . . . . . . . . . .   O t g i i i a i j T W W W ! ~ ~ ! E U Y I h y i i i i i i i i s r O     $ r i i r $   .           ",
"; ; ; ; ; ; ; ; ; ; ; ; ; : ; : h v v v v v l n ! ) / / / / / / ` / ` ! n l v v v v v v v v v g : ; ; : k v v k : ; ; ; ; ; ; ; ",
"= = = = = = = = = = = = = = % ; d x l l l l g c W / / / / / / / / / / R b g l l l l l l l l l s ; % = ; s l l s ; & = = = = = = "
};
